# Created by DisUnity v0.3.3
v -0.038652323 -0.1515 -0.18533666
v 0.094436675 -0.1515 0.18533666
v 0.094436675 -0.1515 -0.18533666
v -0.038652323 -0.1515 0.18533666
v -0.038652323 -0.14661942 0.19711943
v 0.094436675 -0.14661942 0.19711943
v 0.094436675 -0.14661942 -0.19711943
v -0.038652323 -0.14661942 -0.19711943
v 0.094436675 -0.13483666 -0.202
v -0.038652323 -0.13483666 -0.202
v 0.094436675 0.13483666 -0.202
v -0.038652323 0.13483666 -0.202
v -0.038652323 0.13483666 -0.202
v 0.094436675 0.14661942 -0.19711943
v -0.038652323 0.14661942 -0.19711943
v 0.106219426 0.13483666 -0.19711943
v 0.103918694 0.14431868 -0.19481869
v 0.106219426 0.14661942 -0.18533666
v 0.094436675 0.1515 -0.18533666
v 0.094436675 0.13483666 -0.202
v 0.106219426 -0.13483666 -0.19711943
v 0.094436675 -0.13483666 -0.202
v 0.094436675 -0.14661942 -0.19711943
v 0.094436675 -0.13483666 -0.202
v 0.103918694 -0.14431868 -0.19481869
v 0.106219426 -0.14661942 -0.18533666
v 0.094436675 -0.1515 -0.18533666
v 0.094436675 -0.13483666 0.202
v -0.038652323 0.13483666 0.202
v 0.094436675 0.13483666 0.202
v -0.038652323 -0.13483666 0.202
v 0.106219426 0.13483666 0.19711943
v 0.106219426 -0.13483666 0.19711943
v -0.038652323 0.14661942 0.19711943
v 0.094436675 0.14661942 0.19711943
v -0.038652323 0.1515 0.18533666
v 0.094436675 0.1515 0.18533666
v -0.038652323 0.1515 -0.18533666
v 0.094436675 0.1515 -0.18533666
v 0.106219426 0.14661942 -0.18533666
v 0.106219426 0.14661942 0.18533666
v -0.038652323 0.14661942 -0.19711943
v 0.094436675 0.14661942 -0.19711943
v 0.094436675 -0.14661942 0.19711943
v -0.038652323 -0.13483666 0.202
v -0.038652323 -0.14661942 0.19711943
v 0.103918694 -0.14431868 0.19481869
v 0.106219426 -0.14661942 0.18533666
v 0.094436675 -0.1515 0.18533666
v -0.111099996 0.13483666 0.18533666
v -0.111099996 -0.13483666 -0.18533666
v -0.111099996 0.13483666 -0.18533666
v -0.111099996 -0.13483666 0.18533666
v -0.106219426 -0.14661942 0.18533666
v -0.106219426 -0.14661942 -0.18533666
v -0.094436675 -0.1515 0.18533666
v -0.094436675 -0.1515 -0.18533666
v -0.106219426 0.13483666 0.19711943
v -0.106219426 -0.13483666 0.19711943
v -0.094436675 0.13483666 0.202
v -0.094436675 -0.13483666 0.202
v -0.106219426 0.14661942 -0.18533666
v -0.106219426 0.14661942 0.18533666
v -0.094436675 0.1515 -0.18533666
v -0.094436675 0.1515 0.18533666
v -0.106219426 -0.13483666 -0.19711943
v -0.106219426 0.13483666 -0.19711943
v -0.094436675 -0.13483666 -0.202
v -0.094436675 0.13483666 -0.202
v -0.103918694 -0.14431868 0.19481869
v -0.094436675 -0.14661942 0.19711943
v -0.103918694 0.14431868 0.19481869
v -0.094436675 0.14661942 -0.19711943
v -0.103918694 0.14431868 -0.19481869
v -0.094436675 -0.14661942 -0.19711943
v -0.038652323 -0.1515 0.18533666
v -0.038652323 -0.14661942 0.19711943
v -0.038652323 -0.1515 -0.18533666
v -0.038652323 -0.14661942 -0.19711943
v -0.038652323 -0.13483666 -0.202
v -0.038652323 0.13483666 -0.202
v -0.094436675 0.14661942 0.19711943
v -0.094436675 0.13483666 0.202
v -0.103918694 0.14431868 0.19481869
v -0.106219426 0.14661942 0.18533666
v -0.094436675 0.1515 0.18533666
v -0.103918694 -0.14431868 -0.19481869
v -0.103918694 -0.14431868 -0.19481869
v -0.094436675 -0.14661942 -0.19711943
v -0.106219426 -0.14661942 -0.18533666
v -0.038652323 -0.13483666 0.202
v -0.038652323 0.13483666 0.202
v -0.094436675 -0.13483666 0.202
v -0.094436675 0.14661942 0.19711943
v -0.038652323 0.14661942 0.19711943
v -0.094436675 0.1515 0.18533666
v -0.038652323 0.1515 0.18533666
v -0.094436675 0.1515 -0.18533666
v -0.038652323 0.1515 -0.18533666
v -0.094436675 0.14661942 -0.19711943
v -0.038652323 0.14661942 -0.19711943
v -0.038652323 -0.14661942 0.19711943
v -0.094436675 -0.14661942 0.19711943
v -0.038652323 -0.13483666 0.202
v -0.106219426 -0.14661942 0.18533666
v -0.103918694 -0.14431868 0.19481869
v 0.111099996 -0.13483666 -0.18533666
v 0.111099996 0.13483666 0.18533666
v 0.111099996 0.13483666 -0.18533666
v 0.111099996 -0.13483666 0.18533666
v 0.106219426 -0.14661942 -0.18533666
v 0.106219426 -0.14661942 0.18533666
v 0.106219426 -0.13483666 0.19711943
v 0.106219426 0.13483666 0.19711943
v 0.106219426 0.14661942 0.18533666
v 0.106219426 0.14661942 -0.18533666
v 0.106219426 0.13483666 -0.19711943
v 0.106219426 -0.13483666 -0.19711943
v 0.103918694 -0.14431868 0.19481869
v 0.103918694 0.14431868 0.19481869
v 0.103918694 0.14431868 -0.19481869
v 0.103918694 -0.14431868 -0.19481869
v 0.106219426 -0.14661942 0.18533666
v 0.094436675 -0.1515 -0.18533666
v 0.094436675 -0.1515 0.18533666
v 0.106219426 -0.14661942 -0.18533666
v 0.106219426 0.14661942 0.18533666
v 0.103918694 0.14431868 0.19481869
v 0.094436675 0.14661942 0.19711943
v 0.094436675 0.13483666 0.202
v -0.094436675 0.14661942 -0.19711943
v -0.103918694 0.14431868 -0.19481869
v -0.106219426 0.14661942 -0.18533666
v -0.094436675 0.1515 -0.18533666
v -0.038652323 0.14661942 -0.19711943
v -0.038652323 0.13483666 -0.202
vn -0.0 -0.98078537 -0.19509019
vn 0.18540692 -0.9650122 0.185407
vn 0.1854069 -0.9650122 -0.1854069
vn -0.0 -0.98078537 0.19509019
vn -0.0 -0.7071069 0.70710665
vn 0.18400095 -0.69503355 0.69503385
vn 0.18400104 -0.6950336 -0.6950338
vn -0.0 -0.7071068 -0.70710665
vn 0.18540743 -0.18540677 -0.96501213
vn -0.0 -0.19509034 -0.98078525
vn 0.18540739 0.18540682 -0.96501213
vn -0.0 0.19509034 -0.98078525
vn -0.0 0.19509034 -0.98078525
vn 0.18400095 0.6950336 -0.6950338
vn -0.0 0.7071069 -0.70710665
vn 0.69503427 0.18400061 -0.69503325
vn 0.5773505 0.5773498 -0.5773505
vn 0.6950341 0.69503325 -0.18400116
vn 0.18540692 0.9650122 -0.185407
vn 0.18540739 0.18540682 -0.96501213
vn 0.69503427 -0.18400052 -0.69503325
vn 0.18540743 -0.18540677 -0.96501213
vn 0.18400104 -0.6950336 -0.6950338
vn 0.18540743 -0.18540677 -0.96501213
vn 0.57735056 -0.5773498 -0.57735044
vn 0.6950341 -0.6950333 -0.18400112
vn 0.1854069 -0.9650122 -0.1854069
vn 0.18540739 -0.18540682 0.96501213
vn -0.0 0.19509034 0.98078525
vn 0.18540743 0.18540677 0.96501213
vn -0.0 -0.19509034 0.98078525
vn 0.69503427 0.18400052 0.69503325
vn 0.69503427 -0.18400061 0.69503325
vn -0.0 0.7071068 0.70710665
vn 0.18400104 0.6950336 0.6950338
vn -0.0 0.98078537 0.19509019
vn 0.1854069 0.9650122 0.1854069
vn -0.0 0.98078537 -0.19509019
vn 0.18540692 0.9650122 -0.185407
vn 0.6950341 0.69503325 -0.18400116
vn 0.6950341 0.6950333 0.18400112
vn -0.0 0.7071069 -0.70710665
vn 0.18400095 0.6950336 -0.6950338
vn 0.18400095 -0.69503355 0.69503385
vn -0.0 -0.19509034 0.98078525
vn -0.0 -0.7071069 0.70710665
vn 0.5773505 -0.5773498 0.5773505
vn 0.6950341 -0.6950333 0.18400118
vn 0.18540692 -0.9650122 0.185407
vn -0.9650123 0.18540639 0.18540676
vn -0.9650123 -0.18540639 -0.18540676
vn -0.9650123 0.18540636 -0.18540677
vn -0.9650123 -0.18540636 0.18540677
vn -0.6950341 -0.6950333 0.18400112
vn -0.6950341 -0.6950333 -0.18400118
vn -0.18540688 -0.9650122 0.18540676
vn -0.18540692 -0.9650122 -0.18540688
vn -0.69503427 0.18400061 0.69503325
vn -0.69503427 -0.18400052 0.69503325
vn -0.18540739 0.18540686 0.96501213
vn -0.18540743 -0.18540682 0.96501213
vn -0.6950341 0.6950333 -0.18400112
vn -0.6950341 0.6950333 0.18400118
vn -0.18540688 0.9650122 -0.18540676
vn -0.18540692 0.9650122 0.18540688
vn -0.69503427 -0.18400061 -0.69503325
vn -0.69503427 0.18400052 -0.69503325
vn -0.18540739 -0.18540686 -0.96501213
vn -0.18540743 0.18540682 -0.96501213
vn -0.57735056 -0.5773498 0.57735044
vn -0.18400106 -0.69503367 0.69503367
vn -0.5773505 0.5773498 0.5773505
vn -0.18400106 0.69503367 -0.69503367
vn -0.5773505 0.5773498 -0.57735044
vn -0.18400098 -0.69503367 -0.69503367
vn -0.0 -0.98078537 0.19509019
vn -0.0 -0.7071069 0.70710665
vn -0.0 -0.98078537 -0.19509019
vn -0.0 -0.7071068 -0.70710665
vn -0.0 -0.19509034 -0.98078525
vn -0.0 0.19509034 -0.98078525
vn -0.18400098 0.69503367 0.69503367
vn -0.18540739 0.18540686 0.96501213
vn -0.5773505 0.5773498 0.5773505
vn -0.6950341 0.6950333 0.18400118
vn -0.18540692 0.9650122 0.18540688
vn -0.5773505 -0.5773498 -0.5773505
vn -0.5773505 -0.5773498 -0.5773505
vn -0.18400098 -0.69503367 -0.69503367
vn -0.6950341 -0.6950333 -0.18400118
vn -0.0 -0.19509034 0.98078525
vn -0.0 0.19509034 0.98078525
vn -0.18540743 -0.18540682 0.96501213
vn -0.18400098 0.69503367 0.69503367
vn -0.0 0.7071068 0.70710665
vn -0.18540692 0.9650122 0.18540688
vn -0.0 0.98078537 0.19509019
vn -0.18540688 0.9650122 -0.18540676
vn -0.0 0.98078537 -0.19509019
vn -0.18400106 0.69503367 -0.69503367
vn -0.0 0.7071069 -0.70710665
vn -0.0 -0.7071069 0.70710665
vn -0.18400106 -0.69503367 0.69503367
vn -0.0 -0.19509034 0.98078525
vn -0.6950341 -0.6950333 0.18400112
vn -0.57735056 -0.5773498 0.57735044
vn 0.9650123 -0.18540636 -0.18540677
vn 0.9650123 0.18540636 0.18540677
vn 0.9650123 0.18540639 -0.18540676
vn 0.9650123 -0.18540639 0.18540676
vn 0.6950341 -0.6950333 -0.18400112
vn 0.6950341 -0.6950333 0.18400118
vn 0.69503427 -0.18400061 0.69503325
vn 0.69503427 0.18400052 0.69503325
vn 0.6950341 0.6950333 0.18400112
vn 0.6950341 0.69503325 -0.18400116
vn 0.69503427 0.18400061 -0.69503325
vn 0.69503427 -0.18400052 -0.69503325
vn 0.5773505 -0.5773498 0.5773505
vn 0.57735056 0.5773498 0.57735044
vn 0.5773505 0.5773498 -0.5773505
vn 0.57735056 -0.5773498 -0.57735044
vn 0.6950341 -0.6950333 0.18400118
vn 0.1854069 -0.9650122 -0.1854069
vn 0.18540692 -0.9650122 0.185407
vn 0.6950341 -0.6950333 -0.18400112
vn 0.6950341 0.6950333 0.18400112
vn 0.57735056 0.5773498 0.57735044
vn 0.18400104 0.6950336 0.6950338
vn 0.18540743 0.18540677 0.96501213
vn -0.18400106 0.69503367 -0.69503367
vn -0.5773505 0.5773498 -0.57735044
vn -0.6950341 0.6950333 -0.18400112
vn -0.18540688 0.9650122 -0.18540676
vn -0.0 0.7071069 -0.70710665
vn -0.0 0.19509034 -0.98078525
vt 0.8622062 0.8278596
vt 0.8619264 0.82379013
vt 0.8619776 0.8279806
vt 0.86215496 0.823669
vt 0.862208 0.82353574
vt 0.8619794 0.8236569
vt 0.86203396 0.8281138
vt 0.8622625 0.82799274
vt 0.86216676 0.828169
vt 0.8623953 0.82804793
vt 0.86518973 0.828169
vt 0.8654183 0.82804793
vt 0.8654183 0.82804793
vt 0.86532116 0.82811373
vt 0.8655497 0.82799274
vt 0.8651688 0.82812446
vt 0.8652787 0.8280964
vt 0.8652992 0.82799125
vt 0.8653742 0.8279806
vt 0.86518973 0.828169
vt 0.8621458 0.8281245
vt 0.86216676 0.828169
vt 0.86203396 0.8281138
vt 0.86216676 0.828169
vt 0.86204314 0.82809645
vt 0.8620121 0.8279913
vt 0.8619776 0.8279806
vt 0.86211085 0.82360166
vt 0.86536247 0.8234806
vt 0.8651339 0.82360166
vt 0.86233944 0.82348067
vt 0.86511433 0.8236676
vt 0.8620913 0.8236676
vt 0.8654952 0.82353586
vt 0.8652666 0.8236569
vt 0.86555153 0.8236691
vt 0.86532295 0.8237901
vt 0.86560285 0.8278596
vt 0.8653742 0.8279806
vt 0.8652992 0.82799125
vt 0.865248 0.8238008
vt 0.8655497 0.82799274
vt 0.86532116 0.82811373
vt 0.8619794 0.8236569
vt 0.86233944 0.82348067
vt 0.862208 0.82353574
vt 0.86198926 0.82369155
vt 0.8619608 0.8238008
vt 0.8619264 0.82379013
vt 0.8730766 0.8234773
vt 0.8694781 0.82855153
vt 0.8731386 0.8285515
vt 0.8694161 0.8234772
vt 0.86924607 0.8234827
vt 0.869308 0.8285569
vt 0.8691553 0.82349557
vt 0.8692173 0.8285699
vt 0.87306446 0.8233214
vt 0.869404 0.8233214
vt 0.8730391 0.82326764
vt 0.8693787 0.8232675
vt 0.8732884 0.82855684
vt 0.8732264 0.8234827
vt 0.8733301 0.8285698
vt 0.8732681 0.8234957
vt 0.8694699 0.8287182
vt 0.87313044 0.8287181
vt 0.8694463 0.828798
vt 0.8731067 0.828798
vt 0.8692709 0.8233554
vt 0.86921954 0.8233344
vt 0.8731888 0.8233555
vt 0.87326586 0.8287311
vt 0.87325394 0.82868916
vt 0.86928546 0.8287312
vt 0.8690393 0.8235571
vt 0.86910355 0.8233958
vt 0.8691013 0.8286313
vt 0.8691695 0.82879263
vt 0.8693302 0.82885945
vt 0.8729907 0.8288594
vt 0.87319994 0.8233344
vt 0.8730391 0.82326764
vt 0.8731888 0.8233555
vt 0.8732264 0.8234827
vt 0.8732681 0.8234957
vt 0.869336 0.8286892
vt 0.869336 0.8286892
vt 0.86928546 0.8287312
vt 0.869308 0.8285569
vt 0.86926264 0.8233291
vt 0.8729232 0.82332903
vt 0.8693787 0.8232675
vt 0.87319994 0.8233344
vt 0.87308395 0.8233959
vt 0.8732681 0.8234957
vt 0.87315214 0.8235571
vt 0.8733301 0.8285698
vt 0.8732141 0.8286312
vt 0.87326586 0.8287311
vt 0.8731499 0.82879263
vt 0.86910355 0.8233958
vt 0.86921954 0.8233344
vt 0.86926264 0.8233291
vt 0.86924607 0.8234827
vt 0.8692709 0.8233554
vt 0.77638817 0.8123923
vt 0.84843266 0.68491864
vt 0.8480183 0.81278104
vt 0.7768041 0.6845238
vt 0.7729929 0.8123923
vt 0.77341694 0.68448627
vt 0.776799 0.68012524
vt 0.8484665 0.68052053
vt 0.85181975 0.6849185
vt 0.8514052 0.8128181
vt 0.84802353 0.8171796
vt 0.7763544 0.8167911
vt 0.77396435 0.6808094
vt 0.85129654 0.681236
vt 0.8508585 0.816495
vt 0.77352023 0.8160791
vt 0.8619608 0.8238008
vt 0.8619776 0.8279806
vt 0.8619264 0.82379013
vt 0.8620121 0.8279913
vt 0.865248 0.8238008
vt 0.8652249 0.8236915
vt 0.8652666 0.8236569
vt 0.8651339 0.82360166
vt 0.87326586 0.8287311
vt 0.87325394 0.82868916
vt 0.8732884 0.82855684
vt 0.8733301 0.8285698
vt 0.8731499 0.82879263
vt 0.8729907 0.8288594

g mj4
s 1
usemtl mj4
f 3/3/3 2/2/2 1/1/1 
f 2/2/2 4/4/4 1/1/1 
f 4/4/4 2/2/2 5/5/5 
f 2/2/2 6/6/6 5/5/5 
f 7/7/7 3/3/3 1/1/1 
f 8/8/8 7/7/7 1/1/1 
f 9/9/9 7/7/7 8/8/8 
f 10/10/10 9/9/9 8/8/8 
f 9/9/9 10/10/10 11/11/11 
f 10/10/10 12/12/12 11/11/11 
f 14/14/14 11/11/11 13/13/13 
f 15/15/15 14/14/14 13/13/13 
f 11/11/11 14/14/14 16/16/16 
f 14/14/14 17/17/17 16/16/16 
f 18/18/18 17/17/17 14/14/14 
f 19/19/19 18/18/18 14/14/14 
f 16/16/16 21/21/21 20/20/20 
f 21/21/21 22/22/22 20/20/20 
f 24/24/24 21/21/21 23/23/23 
f 21/21/21 25/25/25 23/23/23 
f 23/23/23 25/25/25 26/26/26 
f 27/27/27 23/23/23 26/26/26 
f 30/30/30 29/29/29 28/28/28 
f 29/29/29 31/31/31 28/28/28 
f 32/32/32 30/30/30 28/28/28 
f 33/33/33 32/32/32 28/28/28 
f 29/29/29 30/30/30 34/34/34 
f 30/30/30 35/35/35 34/34/34 
f 34/34/34 35/35/35 36/36/36 
f 35/35/35 37/37/37 36/36/36 
f 38/38/38 36/36/36 37/37/37 
f 39/39/39 38/38/38 37/37/37 
f 40/40/40 39/39/39 37/37/37 
f 41/41/41 40/40/40 37/37/37 
f 37/37/37 35/35/35 41/41/41 
f 38/38/38 39/39/39 42/42/42 
f 39/39/39 43/43/43 42/42/42 
f 28/28/28 44/44/44 33/33/33 
f 44/44/44 28/28/28 45/45/45 
f 46/46/46 44/44/44 45/45/45 
f 44/44/44 47/47/47 33/33/33 
f 48/48/48 47/47/47 44/44/44 
f 49/49/49 48/48/48 44/44/44 
f 52/52/52 51/51/51 50/50/50 
f 51/51/51 53/53/53 50/50/50 
f 53/53/53 51/51/51 54/54/54 
f 51/51/51 55/55/55 54/54/54 
f 54/54/54 55/55/55 56/56/56 
f 55/55/55 57/57/57 56/56/56 
f 58/58/58 50/50/50 53/53/53 
f 59/59/59 58/58/58 53/53/53 
f 53/53/53 54/54/54 59/59/59 
f 60/60/60 58/58/58 59/59/59 
f 61/61/61 60/60/60 59/59/59 
f 62/62/62 52/52/52 50/50/50 
f 63/63/63 62/62/62 50/50/50 
f 50/50/50 58/58/58 63/63/63 
f 64/64/64 62/62/62 63/63/63 
f 65/65/65 64/64/64 63/63/63 
f 66/66/66 51/51/51 52/52/52 
f 51/51/51 66/66/66 55/55/55 
f 67/67/67 66/66/66 52/52/52 
f 52/52/52 62/62/62 67/67/67 
f 68/68/68 66/66/66 67/67/67 
f 69/69/69 68/68/68 67/67/67 
f 54/54/54 70/70/70 59/59/59 
f 56/56/56 71/71/71 54/54/54 
f 61/61/61 59/59/59 71/71/71 
f 58/58/58 72/72/72 63/63/63 
f 69/69/69 67/67/67 73/73/73 
f 62/62/62 74/74/74 67/67/67 
f 68/68/68 75/75/75 66/66/66 
f 56/56/56 76/76/76 71/71/71 
f 76/76/76 77/77/77 71/71/71 
f 76/76/76 56/56/56 57/57/57 
f 57/57/57 55/55/55 75/75/75 
f 78/78/78 76/76/76 57/57/57 
f 75/75/75 79/79/79 57/57/57 
f 79/79/79 78/78/78 57/57/57 
f 80/80/80 79/79/79 75/75/75 
f 68/68/68 80/80/80 75/75/75 
f 80/80/80 68/68/68 81/81/81 
f 68/68/68 69/69/69 81/81/81 
f 83/83/83 82/82/82 58/58/58 
f 82/82/82 84/84/84 58/58/58 
f 85/85/85 84/84/84 82/82/82 
f 86/86/86 85/85/85 82/82/82 
f 66/66/66 87/87/87 55/55/55 
f 89/89/89 88/88/88 66/66/66 
f 90/90/90 88/88/88 89/89/89 
f 92/92/92 83/83/83 91/91/91 
f 83/83/83 93/93/93 91/91/91 
f 83/83/83 92/92/92 94/94/94 
f 92/92/92 95/95/95 94/94/94 
f 94/94/94 95/95/95 96/96/96 
f 95/95/95 97/97/97 96/96/96 
f 98/98/98 96/96/96 97/97/97 
f 99/99/99 98/98/98 97/97/97 
f 98/98/98 99/99/99 100/100/100 
f 99/99/99 101/101/101 100/100/100 
f 103/103/103 102/102/102 93/93/93 
f 102/102/102 104/104/104 93/93/93 
f 103/103/103 106/106/106 105/105/105 
f 59/59/59 106/106/106 103/103/103 
f 109/109/109 108/108/108 107/107/107 
f 108/108/108 110/110/110 107/107/107 
f 111/111/111 107/107/107 110/110/110 
f 112/112/112 111/111/111 110/110/110 
f 110/110/110 108/108/108 113/113/113 
f 110/110/110 113/113/113 112/112/112 
f 108/108/108 114/114/114 113/113/113 
f 108/108/108 109/109/109 115/115/115 
f 108/108/108 115/115/115 114/114/114 
f 109/109/109 116/116/116 115/115/115 
f 109/109/109 107/107/107 117/117/117 
f 109/109/109 117/117/117 116/116/116 
f 107/107/107 118/118/118 117/117/117 
f 107/107/107 111/111/111 118/118/118 
f 113/113/113 119/119/119 112/112/112 
f 115/115/115 120/120/120 114/114/114 
f 117/117/117 121/121/121 116/116/116 
f 111/111/111 122/122/122 118/118/118 
f 125/125/125 124/124/124 123/123/123 
f 124/124/124 126/126/126 123/123/123 
f 129/129/129 128/128/128 127/127/127 
f 32/32/32 128/128/128 129/129/129 
f 130/130/130 32/32/32 129/129/129 
f 67/67/67 132/132/132 131/131/131 
f 131/131/131 132/132/132 133/133/133 
f 134/134/134 131/131/131 133/133/133 
f 131/131/131 135/135/135 69/69/69 
f 135/135/135 136/136/136 69/69/69 

