# Created by DisUnity v0.3.3
v -0.038652323 -0.1515 -0.18533666
v 0.094436675 -0.1515 0.18533666
v 0.094436675 -0.1515 -0.18533666
v -0.038652323 -0.1515 0.18533666
v -0.038652323 -0.14661942 0.19711943
v 0.094436675 -0.14661942 0.19711943
v 0.094436675 -0.14661942 -0.19711943
v -0.038652323 -0.14661942 -0.19711943
v 0.094436675 -0.13483666 -0.202
v -0.038652323 -0.13483666 -0.202
v 0.094436675 0.13483666 -0.202
v -0.038652323 0.13483666 -0.202
v -0.038652323 0.13483666 -0.202
v 0.094436675 0.14661942 -0.19711943
v -0.038652323 0.14661942 -0.19711943
v 0.106219426 0.13483666 -0.19711943
v 0.103918694 0.14431868 -0.19481869
v 0.106219426 0.14661942 -0.18533666
v 0.094436675 0.1515 -0.18533666
v 0.094436675 0.13483666 -0.202
v 0.106219426 -0.13483666 -0.19711943
v 0.094436675 -0.13483666 -0.202
v 0.094436675 -0.14661942 -0.19711943
v 0.094436675 -0.13483666 -0.202
v 0.103918694 -0.14431868 -0.19481869
v 0.106219426 -0.14661942 -0.18533666
v 0.094436675 -0.1515 -0.18533666
v 0.094436675 -0.13483666 0.202
v -0.038652323 0.13483666 0.202
v 0.094436675 0.13483666 0.202
v -0.038652323 -0.13483666 0.202
v 0.106219426 0.13483666 0.19711943
v 0.106219426 -0.13483666 0.19711943
v -0.038652323 0.14661942 0.19711943
v 0.094436675 0.14661942 0.19711943
v -0.038652323 0.1515 0.18533666
v 0.094436675 0.1515 0.18533666
v -0.038652323 0.1515 -0.18533666
v 0.094436675 0.1515 -0.18533666
v 0.106219426 0.14661942 -0.18533666
v 0.106219426 0.14661942 0.18533666
v -0.038652323 0.14661942 -0.19711943
v 0.094436675 0.14661942 -0.19711943
v 0.094436675 -0.14661942 0.19711943
v -0.038652323 -0.13483666 0.202
v -0.038652323 -0.14661942 0.19711943
v 0.103918694 -0.14431868 0.19481869
v 0.106219426 -0.14661942 0.18533666
v 0.094436675 -0.1515 0.18533666
v -0.111099996 0.13483666 0.18533666
v -0.111099996 -0.13483666 -0.18533666
v -0.111099996 0.13483666 -0.18533666
v -0.111099996 -0.13483666 0.18533666
v -0.106219426 -0.14661942 0.18533666
v -0.106219426 -0.14661942 -0.18533666
v -0.094436675 -0.1515 0.18533666
v -0.094436675 -0.1515 -0.18533666
v -0.106219426 0.13483666 0.19711943
v -0.106219426 -0.13483666 0.19711943
v -0.094436675 0.13483666 0.202
v -0.094436675 -0.13483666 0.202
v -0.106219426 0.14661942 -0.18533666
v -0.106219426 0.14661942 0.18533666
v -0.094436675 0.1515 -0.18533666
v -0.094436675 0.1515 0.18533666
v -0.106219426 -0.13483666 -0.19711943
v -0.106219426 0.13483666 -0.19711943
v -0.094436675 -0.13483666 -0.202
v -0.094436675 0.13483666 -0.202
v -0.103918694 -0.14431868 0.19481869
v -0.094436675 -0.14661942 0.19711943
v -0.103918694 0.14431868 0.19481869
v -0.094436675 0.14661942 -0.19711943
v -0.103918694 0.14431868 -0.19481869
v -0.094436675 -0.14661942 -0.19711943
v -0.038652323 -0.1515 0.18533666
v -0.038652323 -0.14661942 0.19711943
v -0.038652323 -0.1515 -0.18533666
v -0.038652323 -0.14661942 -0.19711943
v -0.038652323 -0.13483666 -0.202
v -0.038652323 0.13483666 -0.202
v -0.094436675 0.14661942 0.19711943
v -0.094436675 0.13483666 0.202
v -0.103918694 0.14431868 0.19481869
v -0.106219426 0.14661942 0.18533666
v -0.094436675 0.1515 0.18533666
v -0.103918694 -0.14431868 -0.19481869
v -0.103918694 -0.14431868 -0.19481869
v -0.094436675 -0.14661942 -0.19711943
v -0.106219426 -0.14661942 -0.18533666
v -0.038652323 -0.13483666 0.202
v -0.038652323 0.13483666 0.202
v -0.094436675 -0.13483666 0.202
v -0.094436675 0.14661942 0.19711943
v -0.038652323 0.14661942 0.19711943
v -0.094436675 0.1515 0.18533666
v -0.038652323 0.1515 0.18533666
v -0.094436675 0.1515 -0.18533666
v -0.038652323 0.1515 -0.18533666
v -0.094436675 0.14661942 -0.19711943
v -0.038652323 0.14661942 -0.19711943
v -0.038652323 -0.14661942 0.19711943
v -0.094436675 -0.14661942 0.19711943
v -0.038652323 -0.13483666 0.202
v -0.106219426 -0.14661942 0.18533666
v -0.103918694 -0.14431868 0.19481869
v 0.111099996 -0.13483666 -0.18533666
v 0.111099996 0.13483666 0.18533666
v 0.111099996 0.13483666 -0.18533666
v 0.111099996 -0.13483666 0.18533666
v 0.106219426 -0.14661942 -0.18533666
v 0.106219426 -0.14661942 0.18533666
v 0.106219426 -0.13483666 0.19711943
v 0.106219426 0.13483666 0.19711943
v 0.106219426 0.14661942 0.18533666
v 0.106219426 0.14661942 -0.18533666
v 0.106219426 0.13483666 -0.19711943
v 0.106219426 -0.13483666 -0.19711943
v 0.103918694 -0.14431868 0.19481869
v 0.103918694 0.14431868 0.19481869
v 0.103918694 0.14431868 -0.19481869
v 0.103918694 -0.14431868 -0.19481869
v 0.106219426 -0.14661942 0.18533666
v 0.094436675 -0.1515 -0.18533666
v 0.094436675 -0.1515 0.18533666
v 0.106219426 -0.14661942 -0.18533666
v 0.106219426 0.14661942 0.18533666
v 0.103918694 0.14431868 0.19481869
v 0.094436675 0.14661942 0.19711943
v 0.094436675 0.13483666 0.202
v -0.094436675 0.14661942 -0.19711943
v -0.103918694 0.14431868 -0.19481869
v -0.106219426 0.14661942 -0.18533666
v -0.094436675 0.1515 -0.18533666
v -0.038652323 0.14661942 -0.19711943
v -0.038652323 0.13483666 -0.202
vn -0.0 -0.98078537 -0.19509019
vn 0.18540692 -0.9650122 0.185407
vn 0.1854069 -0.9650122 -0.1854069
vn -0.0 -0.98078537 0.19509019
vn -0.0 -0.7071069 0.70710665
vn 0.18400095 -0.69503355 0.69503385
vn 0.18400104 -0.6950336 -0.6950338
vn -0.0 -0.7071068 -0.70710665
vn 0.18540743 -0.18540677 -0.96501213
vn -0.0 -0.19509034 -0.98078525
vn 0.18540739 0.18540682 -0.96501213
vn -0.0 0.19509034 -0.98078525
vn -0.0 0.19509034 -0.98078525
vn 0.18400095 0.6950336 -0.6950338
vn -0.0 0.7071069 -0.70710665
vn 0.69503427 0.18400061 -0.69503325
vn 0.5773505 0.5773498 -0.5773505
vn 0.6950341 0.69503325 -0.18400116
vn 0.18540692 0.9650122 -0.185407
vn 0.18540739 0.18540682 -0.96501213
vn 0.69503427 -0.18400052 -0.69503325
vn 0.18540743 -0.18540677 -0.96501213
vn 0.18400104 -0.6950336 -0.6950338
vn 0.18540743 -0.18540677 -0.96501213
vn 0.57735056 -0.5773498 -0.57735044
vn 0.6950341 -0.6950333 -0.18400112
vn 0.1854069 -0.9650122 -0.1854069
vn 0.18540739 -0.18540682 0.96501213
vn -0.0 0.19509034 0.98078525
vn 0.18540743 0.18540677 0.96501213
vn -0.0 -0.19509034 0.98078525
vn 0.69503427 0.18400052 0.69503325
vn 0.69503427 -0.18400061 0.69503325
vn -0.0 0.7071068 0.70710665
vn 0.18400104 0.6950336 0.6950338
vn -0.0 0.98078537 0.19509019
vn 0.1854069 0.9650122 0.1854069
vn -0.0 0.98078537 -0.19509019
vn 0.18540692 0.9650122 -0.185407
vn 0.6950341 0.69503325 -0.18400116
vn 0.6950341 0.6950333 0.18400112
vn -0.0 0.7071069 -0.70710665
vn 0.18400095 0.6950336 -0.6950338
vn 0.18400095 -0.69503355 0.69503385
vn -0.0 -0.19509034 0.98078525
vn -0.0 -0.7071069 0.70710665
vn 0.5773505 -0.5773498 0.5773505
vn 0.6950341 -0.6950333 0.18400118
vn 0.18540692 -0.9650122 0.185407
vn -0.9650123 0.18540639 0.18540676
vn -0.9650123 -0.18540639 -0.18540676
vn -0.9650123 0.18540636 -0.18540677
vn -0.9650123 -0.18540636 0.18540677
vn -0.6950341 -0.6950333 0.18400112
vn -0.6950341 -0.6950333 -0.18400118
vn -0.18540688 -0.9650122 0.18540676
vn -0.18540692 -0.9650122 -0.18540688
vn -0.69503427 0.18400061 0.69503325
vn -0.69503427 -0.18400052 0.69503325
vn -0.18540739 0.18540686 0.96501213
vn -0.18540743 -0.18540682 0.96501213
vn -0.6950341 0.6950333 -0.18400112
vn -0.6950341 0.6950333 0.18400118
vn -0.18540688 0.9650122 -0.18540676
vn -0.18540692 0.9650122 0.18540688
vn -0.69503427 -0.18400061 -0.69503325
vn -0.69503427 0.18400052 -0.69503325
vn -0.18540739 -0.18540686 -0.96501213
vn -0.18540743 0.18540682 -0.96501213
vn -0.57735056 -0.5773498 0.57735044
vn -0.18400106 -0.69503367 0.69503367
vn -0.5773505 0.5773498 0.5773505
vn -0.18400106 0.69503367 -0.69503367
vn -0.5773505 0.5773498 -0.57735044
vn -0.18400098 -0.69503367 -0.69503367
vn -0.0 -0.98078537 0.19509019
vn -0.0 -0.7071069 0.70710665
vn -0.0 -0.98078537 -0.19509019
vn -0.0 -0.7071068 -0.70710665
vn -0.0 -0.19509034 -0.98078525
vn -0.0 0.19509034 -0.98078525
vn -0.18400098 0.69503367 0.69503367
vn -0.18540739 0.18540686 0.96501213
vn -0.5773505 0.5773498 0.5773505
vn -0.6950341 0.6950333 0.18400118
vn -0.18540692 0.9650122 0.18540688
vn -0.5773505 -0.5773498 -0.5773505
vn -0.5773505 -0.5773498 -0.5773505
vn -0.18400098 -0.69503367 -0.69503367
vn -0.6950341 -0.6950333 -0.18400118
vn -0.0 -0.19509034 0.98078525
vn -0.0 0.19509034 0.98078525
vn -0.18540743 -0.18540682 0.96501213
vn -0.18400098 0.69503367 0.69503367
vn -0.0 0.7071068 0.70710665
vn -0.18540692 0.9650122 0.18540688
vn -0.0 0.98078537 0.19509019
vn -0.18540688 0.9650122 -0.18540676
vn -0.0 0.98078537 -0.19509019
vn -0.18400106 0.69503367 -0.69503367
vn -0.0 0.7071069 -0.70710665
vn -0.0 -0.7071069 0.70710665
vn -0.18400106 -0.69503367 0.69503367
vn -0.0 -0.19509034 0.98078525
vn -0.6950341 -0.6950333 0.18400112
vn -0.57735056 -0.5773498 0.57735044
vn 0.9650123 -0.18540636 -0.18540677
vn 0.9650123 0.18540636 0.18540677
vn 0.9650123 0.18540639 -0.18540676
vn 0.9650123 -0.18540639 0.18540676
vn 0.6950341 -0.6950333 -0.18400112
vn 0.6950341 -0.6950333 0.18400118
vn 0.69503427 -0.18400061 0.69503325
vn 0.69503427 0.18400052 0.69503325
vn 0.6950341 0.6950333 0.18400112
vn 0.6950341 0.69503325 -0.18400116
vn 0.69503427 0.18400061 -0.69503325
vn 0.69503427 -0.18400052 -0.69503325
vn 0.5773505 -0.5773498 0.5773505
vn 0.57735056 0.5773498 0.57735044
vn 0.5773505 0.5773498 -0.5773505
vn 0.57735056 -0.5773498 -0.57735044
vn 0.6950341 -0.6950333 0.18400118
vn 0.1854069 -0.9650122 -0.1854069
vn 0.18540692 -0.9650122 0.185407
vn 0.6950341 -0.6950333 -0.18400112
vn 0.6950341 0.6950333 0.18400112
vn 0.57735056 0.5773498 0.57735044
vn 0.18400104 0.6950336 0.6950338
vn 0.18540743 0.18540677 0.96501213
vn -0.18400106 0.69503367 -0.69503367
vn -0.5773505 0.5773498 -0.57735044
vn -0.6950341 0.6950333 -0.18400112
vn -0.18540688 0.9650122 -0.18540676
vn -0.0 0.7071069 -0.70710665
vn -0.0 0.19509034 -0.98078525
vt 0.86215 0.16173017
vt 0.8618702 0.15766072
vt 0.8619215 0.16185117
vt 0.8620988 0.1575396
vt 0.86215186 0.15740633
vt 0.8619233 0.15752745
vt 0.8619778 0.16198432
vt 0.8622064 0.16186333
vt 0.86211056 0.16203952
vt 0.86233914 0.16191852
vt 0.8651336 0.16203952
vt 0.8653621 0.16191852
vt 0.8653621 0.16191852
vt 0.86526495 0.16198432
vt 0.8654936 0.16186333
vt 0.86511266 0.16199505
vt 0.86522263 0.16196692
vt 0.86524314 0.16186178
vt 0.86531806 0.16185117
vt 0.8651336 0.16203952
vt 0.8620897 0.16199505
vt 0.86211056 0.16203952
vt 0.8619778 0.16198432
vt 0.86211056 0.16203952
vt 0.861987 0.16196704
vt 0.86195594 0.1618619
vt 0.8619215 0.16185117
vt 0.8620547 0.15747225
vt 0.8653063 0.15735114
vt 0.86507773 0.15747225
vt 0.8622833 0.15735126
vt 0.8650582 0.15753818
vt 0.86203516 0.15753818
vt 0.86543906 0.15740645
vt 0.8652105 0.15752745
vt 0.8654954 0.1575396
vt 0.8652668 0.1576606
vt 0.86554664 0.16173017
vt 0.86531806 0.16185117
vt 0.86524314 0.16186178
vt 0.8651919 0.15767133
vt 0.8654936 0.16186333
vt 0.86526495 0.16198432
vt 0.8619233 0.15752745
vt 0.8622833 0.15735126
vt 0.86215186 0.15740633
vt 0.8619331 0.15756214
vt 0.8619047 0.15767133
vt 0.8618702 0.15766072
vt 0.87302047 0.15734792
vt 0.86942196 0.16242206
vt 0.87308246 0.16242206
vt 0.86935997 0.1573478
vt 0.8691899 0.15735328
vt 0.8692519 0.16242743
vt 0.86909914 0.15736616
vt 0.8691611 0.16244042
vt 0.8730083 0.15719199
vt 0.8693479 0.15719199
vt 0.872983 0.15713823
vt 0.86932254 0.15713811
vt 0.87323225 0.16242743
vt 0.87317026 0.15735328
vt 0.87327397 0.16244042
vt 0.873212 0.15736628
vt 0.8694138 0.16258872
vt 0.87307423 0.16258872
vt 0.8693901 0.16266859
vt 0.87305063 0.16266859
vt 0.8692148 0.15722597
vt 0.8691634 0.15720499
vt 0.87313265 0.15722609
vt 0.8732097 0.16260171
vt 0.8731978 0.16255975
vt 0.8692294 0.16260171
vt 0.86898315 0.15742767
vt 0.8690474 0.15726638
vt 0.8690451 0.16250181
vt 0.8691133 0.16266322
vt 0.8692741 0.16272998
vt 0.8729346 0.16272998
vt 0.8731438 0.15720499
vt 0.872983 0.15713823
vt 0.87313265 0.15722609
vt 0.87317026 0.15735328
vt 0.873212 0.15736628
vt 0.8692799 0.16255975
vt 0.8692799 0.16255975
vt 0.8692294 0.16260171
vt 0.8692519 0.16242743
vt 0.8692065 0.15719962
vt 0.87286705 0.15719962
vt 0.86932254 0.15713811
vt 0.8731438 0.15720499
vt 0.8730278 0.1572665
vt 0.873212 0.15736628
vt 0.873096 0.15742767
vt 0.87327397 0.16244042
vt 0.873158 0.16250181
vt 0.8732097 0.16260171
vt 0.87309366 0.16266322
vt 0.8690474 0.15726638
vt 0.8691634 0.15720499
vt 0.8692065 0.15719962
vt 0.8691899 0.15735328
vt 0.8692148 0.15722597
vt 0.776332 0.14626288
vt 0.8483765 0.018789172
vt 0.84796214 0.14665163
vt 0.77674794 0.018394351
vt 0.77293676 0.14626288
vt 0.7733608 0.0183568
vt 0.7767429 0.013995767
vt 0.84841037 0.014391065
vt 0.8517636 0.018789053
vt 0.85134906 0.1466887
vt 0.8479674 0.15105021
vt 0.7762982 0.1506617
vt 0.7739082 0.014679909
vt 0.8512404 0.015106559
vt 0.85080236 0.15036559
vt 0.7734641 0.14994967
vt 0.8619047 0.15767133
vt 0.8619215 0.16185117
vt 0.8618702 0.15766072
vt 0.86195594 0.1618619
vt 0.8651919 0.15767133
vt 0.86516875 0.15756202
vt 0.8652105 0.15752745
vt 0.86507773 0.15747225
vt 0.8732097 0.16260171
vt 0.8731978 0.16255975
vt 0.87323225 0.16242743
vt 0.87327397 0.16244042
vt 0.87309366 0.16266322
vt 0.8729346 0.16272998

g mj52
s 1
usemtl mj52
f 3/3/3 2/2/2 1/1/1 
f 2/2/2 4/4/4 1/1/1 
f 4/4/4 2/2/2 5/5/5 
f 2/2/2 6/6/6 5/5/5 
f 7/7/7 3/3/3 1/1/1 
f 8/8/8 7/7/7 1/1/1 
f 9/9/9 7/7/7 8/8/8 
f 10/10/10 9/9/9 8/8/8 
f 9/9/9 10/10/10 11/11/11 
f 10/10/10 12/12/12 11/11/11 
f 14/14/14 11/11/11 13/13/13 
f 15/15/15 14/14/14 13/13/13 
f 11/11/11 14/14/14 16/16/16 
f 14/14/14 17/17/17 16/16/16 
f 18/18/18 17/17/17 14/14/14 
f 19/19/19 18/18/18 14/14/14 
f 16/16/16 21/21/21 20/20/20 
f 21/21/21 22/22/22 20/20/20 
f 24/24/24 21/21/21 23/23/23 
f 21/21/21 25/25/25 23/23/23 
f 23/23/23 25/25/25 26/26/26 
f 27/27/27 23/23/23 26/26/26 
f 30/30/30 29/29/29 28/28/28 
f 29/29/29 31/31/31 28/28/28 
f 32/32/32 30/30/30 28/28/28 
f 33/33/33 32/32/32 28/28/28 
f 29/29/29 30/30/30 34/34/34 
f 30/30/30 35/35/35 34/34/34 
f 34/34/34 35/35/35 36/36/36 
f 35/35/35 37/37/37 36/36/36 
f 38/38/38 36/36/36 37/37/37 
f 39/39/39 38/38/38 37/37/37 
f 40/40/40 39/39/39 37/37/37 
f 41/41/41 40/40/40 37/37/37 
f 37/37/37 35/35/35 41/41/41 
f 38/38/38 39/39/39 42/42/42 
f 39/39/39 43/43/43 42/42/42 
f 28/28/28 44/44/44 33/33/33 
f 44/44/44 28/28/28 45/45/45 
f 46/46/46 44/44/44 45/45/45 
f 44/44/44 47/47/47 33/33/33 
f 48/48/48 47/47/47 44/44/44 
f 49/49/49 48/48/48 44/44/44 
f 52/52/52 51/51/51 50/50/50 
f 51/51/51 53/53/53 50/50/50 
f 53/53/53 51/51/51 54/54/54 
f 51/51/51 55/55/55 54/54/54 
f 54/54/54 55/55/55 56/56/56 
f 55/55/55 57/57/57 56/56/56 
f 58/58/58 50/50/50 53/53/53 
f 59/59/59 58/58/58 53/53/53 
f 53/53/53 54/54/54 59/59/59 
f 60/60/60 58/58/58 59/59/59 
f 61/61/61 60/60/60 59/59/59 
f 62/62/62 52/52/52 50/50/50 
f 63/63/63 62/62/62 50/50/50 
f 50/50/50 58/58/58 63/63/63 
f 64/64/64 62/62/62 63/63/63 
f 65/65/65 64/64/64 63/63/63 
f 66/66/66 51/51/51 52/52/52 
f 51/51/51 66/66/66 55/55/55 
f 67/67/67 66/66/66 52/52/52 
f 52/52/52 62/62/62 67/67/67 
f 68/68/68 66/66/66 67/67/67 
f 69/69/69 68/68/68 67/67/67 
f 54/54/54 70/70/70 59/59/59 
f 56/56/56 71/71/71 54/54/54 
f 61/61/61 59/59/59 71/71/71 
f 58/58/58 72/72/72 63/63/63 
f 69/69/69 67/67/67 73/73/73 
f 62/62/62 74/74/74 67/67/67 
f 68/68/68 75/75/75 66/66/66 
f 56/56/56 76/76/76 71/71/71 
f 76/76/76 77/77/77 71/71/71 
f 76/76/76 56/56/56 57/57/57 
f 57/57/57 55/55/55 75/75/75 
f 78/78/78 76/76/76 57/57/57 
f 75/75/75 79/79/79 57/57/57 
f 79/79/79 78/78/78 57/57/57 
f 80/80/80 79/79/79 75/75/75 
f 68/68/68 80/80/80 75/75/75 
f 80/80/80 68/68/68 81/81/81 
f 68/68/68 69/69/69 81/81/81 
f 83/83/83 82/82/82 58/58/58 
f 82/82/82 84/84/84 58/58/58 
f 85/85/85 84/84/84 82/82/82 
f 86/86/86 85/85/85 82/82/82 
f 66/66/66 87/87/87 55/55/55 
f 89/89/89 88/88/88 66/66/66 
f 90/90/90 88/88/88 89/89/89 
f 92/92/92 83/83/83 91/91/91 
f 83/83/83 93/93/93 91/91/91 
f 83/83/83 92/92/92 94/94/94 
f 92/92/92 95/95/95 94/94/94 
f 94/94/94 95/95/95 96/96/96 
f 95/95/95 97/97/97 96/96/96 
f 98/98/98 96/96/96 97/97/97 
f 99/99/99 98/98/98 97/97/97 
f 98/98/98 99/99/99 100/100/100 
f 99/99/99 101/101/101 100/100/100 
f 103/103/103 102/102/102 93/93/93 
f 102/102/102 104/104/104 93/93/93 
f 103/103/103 106/106/106 105/105/105 
f 59/59/59 106/106/106 103/103/103 
f 109/109/109 108/108/108 107/107/107 
f 108/108/108 110/110/110 107/107/107 
f 111/111/111 107/107/107 110/110/110 
f 112/112/112 111/111/111 110/110/110 
f 110/110/110 108/108/108 113/113/113 
f 110/110/110 113/113/113 112/112/112 
f 108/108/108 114/114/114 113/113/113 
f 108/108/108 109/109/109 115/115/115 
f 108/108/108 115/115/115 114/114/114 
f 109/109/109 116/116/116 115/115/115 
f 109/109/109 107/107/107 117/117/117 
f 109/109/109 117/117/117 116/116/116 
f 107/107/107 118/118/118 117/117/117 
f 107/107/107 111/111/111 118/118/118 
f 113/113/113 119/119/119 112/112/112 
f 115/115/115 120/120/120 114/114/114 
f 117/117/117 121/121/121 116/116/116 
f 111/111/111 122/122/122 118/118/118 
f 125/125/125 124/124/124 123/123/123 
f 124/124/124 126/126/126 123/123/123 
f 129/129/129 128/128/128 127/127/127 
f 32/32/32 128/128/128 129/129/129 
f 130/130/130 32/32/32 129/129/129 
f 67/67/67 132/132/132 131/131/131 
f 131/131/131 132/132/132 133/133/133 
f 134/134/134 131/131/131 133/133/133 
f 131/131/131 135/135/135 69/69/69 
f 135/135/135 136/136/136 69/69/69 

