# Created by DisUnity v0.3.3
v -0.038652323 -0.1515 -0.18533666
v 0.094436675 -0.1515 0.18533666
v 0.094436675 -0.1515 -0.18533666
v -0.038652323 -0.1515 0.18533666
v -0.038652323 -0.14661942 0.19711943
v 0.094436675 -0.14661942 0.19711943
v 0.094436675 -0.14661942 -0.19711943
v -0.038652323 -0.14661942 -0.19711943
v 0.094436675 -0.13483666 -0.202
v -0.038652323 -0.13483666 -0.202
v 0.094436675 0.13483666 -0.202
v -0.038652323 0.13483666 -0.202
v -0.038652323 0.13483666 -0.202
v 0.094436675 0.14661942 -0.19711943
v -0.038652323 0.14661942 -0.19711943
v 0.106219426 0.13483666 -0.19711943
v 0.103918694 0.14431868 -0.19481869
v 0.106219426 0.14661942 -0.18533666
v 0.094436675 0.1515 -0.18533666
v 0.094436675 0.13483666 -0.202
v 0.106219426 -0.13483666 -0.19711943
v 0.094436675 -0.13483666 -0.202
v 0.094436675 -0.14661942 -0.19711943
v 0.094436675 -0.13483666 -0.202
v 0.103918694 -0.14431868 -0.19481869
v 0.106219426 -0.14661942 -0.18533666
v 0.094436675 -0.1515 -0.18533666
v 0.094436675 -0.13483666 0.202
v -0.038652323 0.13483666 0.202
v 0.094436675 0.13483666 0.202
v -0.038652323 -0.13483666 0.202
v 0.106219426 0.13483666 0.19711943
v 0.106219426 -0.13483666 0.19711943
v -0.038652323 0.14661942 0.19711943
v 0.094436675 0.14661942 0.19711943
v -0.038652323 0.1515 0.18533666
v 0.094436675 0.1515 0.18533666
v -0.038652323 0.1515 -0.18533666
v 0.094436675 0.1515 -0.18533666
v 0.106219426 0.14661942 -0.18533666
v 0.106219426 0.14661942 0.18533666
v -0.038652323 0.14661942 -0.19711943
v 0.094436675 0.14661942 -0.19711943
v 0.094436675 -0.14661942 0.19711943
v -0.038652323 -0.13483666 0.202
v -0.038652323 -0.14661942 0.19711943
v 0.103918694 -0.14431868 0.19481869
v 0.106219426 -0.14661942 0.18533666
v 0.094436675 -0.1515 0.18533666
v -0.111099996 0.13483666 0.18533666
v -0.111099996 -0.13483666 -0.18533666
v -0.111099996 0.13483666 -0.18533666
v -0.111099996 -0.13483666 0.18533666
v -0.106219426 -0.14661942 0.18533666
v -0.106219426 -0.14661942 -0.18533666
v -0.094436675 -0.1515 0.18533666
v -0.094436675 -0.1515 -0.18533666
v -0.106219426 0.13483666 0.19711943
v -0.106219426 -0.13483666 0.19711943
v -0.094436675 0.13483666 0.202
v -0.094436675 -0.13483666 0.202
v -0.106219426 0.14661942 -0.18533666
v -0.106219426 0.14661942 0.18533666
v -0.094436675 0.1515 -0.18533666
v -0.094436675 0.1515 0.18533666
v -0.106219426 -0.13483666 -0.19711943
v -0.106219426 0.13483666 -0.19711943
v -0.094436675 -0.13483666 -0.202
v -0.094436675 0.13483666 -0.202
v -0.103918694 -0.14431868 0.19481869
v -0.094436675 -0.14661942 0.19711943
v -0.103918694 0.14431868 0.19481869
v -0.094436675 0.14661942 -0.19711943
v -0.103918694 0.14431868 -0.19481869
v -0.094436675 -0.14661942 -0.19711943
v -0.038652323 -0.1515 0.18533666
v -0.038652323 -0.14661942 0.19711943
v -0.038652323 -0.1515 -0.18533666
v -0.038652323 -0.14661942 -0.19711943
v -0.038652323 -0.13483666 -0.202
v -0.038652323 0.13483666 -0.202
v -0.094436675 0.14661942 0.19711943
v -0.094436675 0.13483666 0.202
v -0.103918694 0.14431868 0.19481869
v -0.106219426 0.14661942 0.18533666
v -0.094436675 0.1515 0.18533666
v -0.103918694 -0.14431868 -0.19481869
v -0.103918694 -0.14431868 -0.19481869
v -0.094436675 -0.14661942 -0.19711943
v -0.106219426 -0.14661942 -0.18533666
v -0.038652323 -0.13483666 0.202
v -0.038652323 0.13483666 0.202
v -0.094436675 -0.13483666 0.202
v -0.094436675 0.14661942 0.19711943
v -0.038652323 0.14661942 0.19711943
v -0.094436675 0.1515 0.18533666
v -0.038652323 0.1515 0.18533666
v -0.094436675 0.1515 -0.18533666
v -0.038652323 0.1515 -0.18533666
v -0.094436675 0.14661942 -0.19711943
v -0.038652323 0.14661942 -0.19711943
v -0.038652323 -0.14661942 0.19711943
v -0.094436675 -0.14661942 0.19711943
v -0.038652323 -0.13483666 0.202
v -0.106219426 -0.14661942 0.18533666
v -0.103918694 -0.14431868 0.19481869
v 0.111099996 -0.13483666 -0.18533666
v 0.111099996 0.13483666 0.18533666
v 0.111099996 0.13483666 -0.18533666
v 0.111099996 -0.13483666 0.18533666
v 0.106219426 -0.14661942 -0.18533666
v 0.106219426 -0.14661942 0.18533666
v 0.106219426 -0.13483666 0.19711943
v 0.106219426 0.13483666 0.19711943
v 0.106219426 0.14661942 0.18533666
v 0.106219426 0.14661942 -0.18533666
v 0.106219426 0.13483666 -0.19711943
v 0.106219426 -0.13483666 -0.19711943
v 0.103918694 -0.14431868 0.19481869
v 0.103918694 0.14431868 0.19481869
v 0.103918694 0.14431868 -0.19481869
v 0.103918694 -0.14431868 -0.19481869
v 0.106219426 -0.14661942 0.18533666
v 0.094436675 -0.1515 -0.18533666
v 0.094436675 -0.1515 0.18533666
v 0.106219426 -0.14661942 -0.18533666
v 0.106219426 0.14661942 0.18533666
v 0.103918694 0.14431868 0.19481869
v 0.094436675 0.14661942 0.19711943
v 0.094436675 0.13483666 0.202
v -0.094436675 0.14661942 -0.19711943
v -0.103918694 0.14431868 -0.19481869
v -0.106219426 0.14661942 -0.18533666
v -0.094436675 0.1515 -0.18533666
v -0.038652323 0.14661942 -0.19711943
v -0.038652323 0.13483666 -0.202
vn -0.0 -0.98078537 -0.19509019
vn 0.18540692 -0.9650122 0.185407
vn 0.1854069 -0.9650122 -0.1854069
vn -0.0 -0.98078537 0.19509019
vn -0.0 -0.7071069 0.70710665
vn 0.18400095 -0.69503355 0.69503385
vn 0.18400104 -0.6950336 -0.6950338
vn -0.0 -0.7071068 -0.70710665
vn 0.18540743 -0.18540677 -0.96501213
vn -0.0 -0.19509034 -0.98078525
vn 0.18540739 0.18540682 -0.96501213
vn -0.0 0.19509034 -0.98078525
vn -0.0 0.19509034 -0.98078525
vn 0.18400095 0.6950336 -0.6950338
vn -0.0 0.7071069 -0.70710665
vn 0.69503427 0.18400061 -0.69503325
vn 0.5773505 0.5773498 -0.5773505
vn 0.6950341 0.69503325 -0.18400116
vn 0.18540692 0.9650122 -0.185407
vn 0.18540739 0.18540682 -0.96501213
vn 0.69503427 -0.18400052 -0.69503325
vn 0.18540743 -0.18540677 -0.96501213
vn 0.18400104 -0.6950336 -0.6950338
vn 0.18540743 -0.18540677 -0.96501213
vn 0.57735056 -0.5773498 -0.57735044
vn 0.6950341 -0.6950333 -0.18400112
vn 0.1854069 -0.9650122 -0.1854069
vn 0.18540739 -0.18540682 0.96501213
vn -0.0 0.19509034 0.98078525
vn 0.18540743 0.18540677 0.96501213
vn -0.0 -0.19509034 0.98078525
vn 0.69503427 0.18400052 0.69503325
vn 0.69503427 -0.18400061 0.69503325
vn -0.0 0.7071068 0.70710665
vn 0.18400104 0.6950336 0.6950338
vn -0.0 0.98078537 0.19509019
vn 0.1854069 0.9650122 0.1854069
vn -0.0 0.98078537 -0.19509019
vn 0.18540692 0.9650122 -0.185407
vn 0.6950341 0.69503325 -0.18400116
vn 0.6950341 0.6950333 0.18400112
vn -0.0 0.7071069 -0.70710665
vn 0.18400095 0.6950336 -0.6950338
vn 0.18400095 -0.69503355 0.69503385
vn -0.0 -0.19509034 0.98078525
vn -0.0 -0.7071069 0.70710665
vn 0.5773505 -0.5773498 0.5773505
vn 0.6950341 -0.6950333 0.18400118
vn 0.18540692 -0.9650122 0.185407
vn -0.9650123 0.18540639 0.18540676
vn -0.9650123 -0.18540639 -0.18540676
vn -0.9650123 0.18540636 -0.18540677
vn -0.9650123 -0.18540636 0.18540677
vn -0.6950341 -0.6950333 0.18400112
vn -0.6950341 -0.6950333 -0.18400118
vn -0.18540688 -0.9650122 0.18540676
vn -0.18540692 -0.9650122 -0.18540688
vn -0.69503427 0.18400061 0.69503325
vn -0.69503427 -0.18400052 0.69503325
vn -0.18540739 0.18540686 0.96501213
vn -0.18540743 -0.18540682 0.96501213
vn -0.6950341 0.6950333 -0.18400112
vn -0.6950341 0.6950333 0.18400118
vn -0.18540688 0.9650122 -0.18540676
vn -0.18540692 0.9650122 0.18540688
vn -0.69503427 -0.18400061 -0.69503325
vn -0.69503427 0.18400052 -0.69503325
vn -0.18540739 -0.18540686 -0.96501213
vn -0.18540743 0.18540682 -0.96501213
vn -0.57735056 -0.5773498 0.57735044
vn -0.18400106 -0.69503367 0.69503367
vn -0.5773505 0.5773498 0.5773505
vn -0.18400106 0.69503367 -0.69503367
vn -0.5773505 0.5773498 -0.57735044
vn -0.18400098 -0.69503367 -0.69503367
vn -0.0 -0.98078537 0.19509019
vn -0.0 -0.7071069 0.70710665
vn -0.0 -0.98078537 -0.19509019
vn -0.0 -0.7071068 -0.70710665
vn -0.0 -0.19509034 -0.98078525
vn -0.0 0.19509034 -0.98078525
vn -0.18400098 0.69503367 0.69503367
vn -0.18540739 0.18540686 0.96501213
vn -0.5773505 0.5773498 0.5773505
vn -0.6950341 0.6950333 0.18400118
vn -0.18540692 0.9650122 0.18540688
vn -0.5773505 -0.5773498 -0.5773505
vn -0.5773505 -0.5773498 -0.5773505
vn -0.18400098 -0.69503367 -0.69503367
vn -0.6950341 -0.6950333 -0.18400118
vn -0.0 -0.19509034 0.98078525
vn -0.0 0.19509034 0.98078525
vn -0.18540743 -0.18540682 0.96501213
vn -0.18400098 0.69503367 0.69503367
vn -0.0 0.7071068 0.70710665
vn -0.18540692 0.9650122 0.18540688
vn -0.0 0.98078537 0.19509019
vn -0.18540688 0.9650122 -0.18540676
vn -0.0 0.98078537 -0.19509019
vn -0.18400106 0.69503367 -0.69503367
vn -0.0 0.7071069 -0.70710665
vn -0.0 -0.7071069 0.70710665
vn -0.18400106 -0.69503367 0.69503367
vn -0.0 -0.19509034 0.98078525
vn -0.6950341 -0.6950333 0.18400112
vn -0.57735056 -0.5773498 0.57735044
vn 0.9650123 -0.18540636 -0.18540677
vn 0.9650123 0.18540636 0.18540677
vn 0.9650123 0.18540639 -0.18540676
vn 0.9650123 -0.18540639 0.18540676
vn 0.6950341 -0.6950333 -0.18400112
vn 0.6950341 -0.6950333 0.18400118
vn 0.69503427 -0.18400061 0.69503325
vn 0.69503427 0.18400052 0.69503325
vn 0.6950341 0.6950333 0.18400112
vn 0.6950341 0.69503325 -0.18400116
vn 0.69503427 0.18400061 -0.69503325
vn 0.69503427 -0.18400052 -0.69503325
vn 0.5773505 -0.5773498 0.5773505
vn 0.57735056 0.5773498 0.57735044
vn 0.5773505 0.5773498 -0.5773505
vn 0.57735056 -0.5773498 -0.57735044
vn 0.6950341 -0.6950333 0.18400118
vn 0.1854069 -0.9650122 -0.1854069
vn 0.18540692 -0.9650122 0.185407
vn 0.6950341 -0.6950333 -0.18400112
vn 0.6950341 0.6950333 0.18400112
vn 0.57735056 0.5773498 0.57735044
vn 0.18400104 0.6950336 0.6950338
vn 0.18540743 0.18540677 0.96501213
vn -0.18400106 0.69503367 -0.69503367
vn -0.5773505 0.5773498 -0.57735044
vn -0.6950341 0.6950333 -0.18400112
vn -0.18540688 0.9650122 -0.18540676
vn -0.0 0.7071069 -0.70710665
vn -0.0 0.19509034 -0.98078525
vt 0.48724288 0.32779014
vt 0.48696306 0.3237207
vt 0.4870143 0.32791114
vt 0.48719162 0.32359958
vt 0.48724467 0.3234663
vt 0.4870161 0.32358748
vt 0.48707065 0.32804435
vt 0.4872992 0.3279233
vt 0.48720342 0.32809955
vt 0.48743194 0.3279785
vt 0.49022645 0.32809955
vt 0.49045497 0.3279785
vt 0.49045497 0.3279785
vt 0.49035782 0.3280443
vt 0.4905864 0.3279233
vt 0.49020547 0.32805502
vt 0.49031544 0.32802695
vt 0.49033594 0.3279218
vt 0.49041086 0.32791114
vt 0.49022645 0.32809955
vt 0.4871825 0.32805508
vt 0.48720342 0.32809955
vt 0.48707065 0.32804435
vt 0.48720342 0.32809955
vt 0.48707983 0.328027
vt 0.48704877 0.32792187
vt 0.4870143 0.32791114
vt 0.4871475 0.32353222
vt 0.49039918 0.32341117
vt 0.49017054 0.32353222
vt 0.48737615 0.32341123
vt 0.490151 0.32359815
vt 0.48712796 0.32359815
vt 0.49053186 0.32346642
vt 0.49030334 0.32358748
vt 0.49058825 0.32359964
vt 0.4903596 0.32372063
vt 0.4906395 0.32779014
vt 0.49041086 0.32791114
vt 0.49033594 0.3279218
vt 0.49028474 0.32373136
vt 0.4905864 0.3279233
vt 0.49035782 0.3280443
vt 0.4870161 0.32358748
vt 0.48737615 0.32341123
vt 0.48724467 0.3234663
vt 0.48702595 0.3236221
vt 0.48699751 0.32373136
vt 0.48696306 0.3237207
vt 0.49811333 0.3234079
vt 0.49451476 0.3284821
vt 0.49817532 0.32848203
vt 0.49445277 0.32340777
vt 0.49428278 0.32341325
vt 0.4943447 0.32848746
vt 0.49419194 0.32342613
vt 0.49425393 0.32850045
vt 0.49810117 0.32325196
vt 0.49444073 0.32325196
vt 0.49807578 0.3231982
vt 0.49441534 0.32319808
vt 0.49832505 0.3284874
vt 0.49826306 0.32341325
vt 0.49836677 0.3285004
vt 0.49830478 0.32342625
vt 0.4945066 0.32864875
vt 0.4981671 0.3286487
vt 0.49448293 0.32872856
vt 0.49814343 0.32872856
vt 0.49430758 0.32328594
vt 0.4942562 0.32326496
vt 0.4982255 0.32328606
vt 0.49830252 0.32866168
vt 0.4982906 0.32861972
vt 0.49432218 0.32866174
vt 0.49407595 0.32348764
vt 0.4941402 0.32332635
vt 0.49413794 0.32856184
vt 0.49420613 0.3287232
vt 0.49436694 0.32879
vt 0.49802738 0.32878995
vt 0.4982366 0.32326496
vt 0.49807578 0.3231982
vt 0.4982255 0.32328606
vt 0.49826306 0.32341325
vt 0.49830478 0.32342625
vt 0.49437273 0.32861978
vt 0.49437273 0.32861978
vt 0.49432218 0.32866174
vt 0.4943447 0.32848746
vt 0.49429935 0.32325965
vt 0.4979599 0.3232596
vt 0.49441534 0.32319808
vt 0.4982366 0.32326496
vt 0.4981206 0.32332647
vt 0.49830478 0.32342625
vt 0.4981888 0.32348764
vt 0.49836677 0.3285004
vt 0.49825078 0.32856178
vt 0.49830252 0.32866168
vt 0.49818653 0.3287232
vt 0.4941402 0.32332635
vt 0.4942562 0.32326496
vt 0.49429935 0.32325965
vt 0.49428278 0.32341325
vt 0.49430758 0.32328594
vt 0.40142485 0.31232285
vt 0.47346938 0.1848492
vt 0.47305498 0.3127116
vt 0.40184078 0.18445432
vt 0.3980296 0.31232285
vt 0.39845365 0.18441677
vt 0.40183574 0.18005574
vt 0.47350323 0.18045104
vt 0.47685644 0.18484902
vt 0.4764419 0.31274867
vt 0.47306022 0.31711018
vt 0.40139106 0.31672168
vt 0.39900106 0.18073988
vt 0.47633326 0.18116653
vt 0.4758952 0.31642556
vt 0.39855692 0.31600964
vt 0.48699751 0.32373136
vt 0.4870143 0.32791114
vt 0.48696306 0.3237207
vt 0.48704877 0.32792187
vt 0.49028474 0.32373136
vt 0.4902616 0.32362205
vt 0.49030334 0.32358748
vt 0.49017054 0.32353222
vt 0.49830252 0.32866168
vt 0.4982906 0.32861972
vt 0.49832505 0.3284874
vt 0.49836677 0.3285004
vt 0.49818653 0.3287232
vt 0.49802738 0.32878995

g mj35
s 1
usemtl mj35
f 3/3/3 2/2/2 1/1/1 
f 2/2/2 4/4/4 1/1/1 
f 4/4/4 2/2/2 5/5/5 
f 2/2/2 6/6/6 5/5/5 
f 7/7/7 3/3/3 1/1/1 
f 8/8/8 7/7/7 1/1/1 
f 9/9/9 7/7/7 8/8/8 
f 10/10/10 9/9/9 8/8/8 
f 9/9/9 10/10/10 11/11/11 
f 10/10/10 12/12/12 11/11/11 
f 14/14/14 11/11/11 13/13/13 
f 15/15/15 14/14/14 13/13/13 
f 11/11/11 14/14/14 16/16/16 
f 14/14/14 17/17/17 16/16/16 
f 18/18/18 17/17/17 14/14/14 
f 19/19/19 18/18/18 14/14/14 
f 16/16/16 21/21/21 20/20/20 
f 21/21/21 22/22/22 20/20/20 
f 24/24/24 21/21/21 23/23/23 
f 21/21/21 25/25/25 23/23/23 
f 23/23/23 25/25/25 26/26/26 
f 27/27/27 23/23/23 26/26/26 
f 30/30/30 29/29/29 28/28/28 
f 29/29/29 31/31/31 28/28/28 
f 32/32/32 30/30/30 28/28/28 
f 33/33/33 32/32/32 28/28/28 
f 29/29/29 30/30/30 34/34/34 
f 30/30/30 35/35/35 34/34/34 
f 34/34/34 35/35/35 36/36/36 
f 35/35/35 37/37/37 36/36/36 
f 38/38/38 36/36/36 37/37/37 
f 39/39/39 38/38/38 37/37/37 
f 40/40/40 39/39/39 37/37/37 
f 41/41/41 40/40/40 37/37/37 
f 37/37/37 35/35/35 41/41/41 
f 38/38/38 39/39/39 42/42/42 
f 39/39/39 43/43/43 42/42/42 
f 28/28/28 44/44/44 33/33/33 
f 44/44/44 28/28/28 45/45/45 
f 46/46/46 44/44/44 45/45/45 
f 44/44/44 47/47/47 33/33/33 
f 48/48/48 47/47/47 44/44/44 
f 49/49/49 48/48/48 44/44/44 
f 52/52/52 51/51/51 50/50/50 
f 51/51/51 53/53/53 50/50/50 
f 53/53/53 51/51/51 54/54/54 
f 51/51/51 55/55/55 54/54/54 
f 54/54/54 55/55/55 56/56/56 
f 55/55/55 57/57/57 56/56/56 
f 58/58/58 50/50/50 53/53/53 
f 59/59/59 58/58/58 53/53/53 
f 53/53/53 54/54/54 59/59/59 
f 60/60/60 58/58/58 59/59/59 
f 61/61/61 60/60/60 59/59/59 
f 62/62/62 52/52/52 50/50/50 
f 63/63/63 62/62/62 50/50/50 
f 50/50/50 58/58/58 63/63/63 
f 64/64/64 62/62/62 63/63/63 
f 65/65/65 64/64/64 63/63/63 
f 66/66/66 51/51/51 52/52/52 
f 51/51/51 66/66/66 55/55/55 
f 67/67/67 66/66/66 52/52/52 
f 52/52/52 62/62/62 67/67/67 
f 68/68/68 66/66/66 67/67/67 
f 69/69/69 68/68/68 67/67/67 
f 54/54/54 70/70/70 59/59/59 
f 56/56/56 71/71/71 54/54/54 
f 61/61/61 59/59/59 71/71/71 
f 58/58/58 72/72/72 63/63/63 
f 69/69/69 67/67/67 73/73/73 
f 62/62/62 74/74/74 67/67/67 
f 68/68/68 75/75/75 66/66/66 
f 56/56/56 76/76/76 71/71/71 
f 76/76/76 77/77/77 71/71/71 
f 76/76/76 56/56/56 57/57/57 
f 57/57/57 55/55/55 75/75/75 
f 78/78/78 76/76/76 57/57/57 
f 75/75/75 79/79/79 57/57/57 
f 79/79/79 78/78/78 57/57/57 
f 80/80/80 79/79/79 75/75/75 
f 68/68/68 80/80/80 75/75/75 
f 80/80/80 68/68/68 81/81/81 
f 68/68/68 69/69/69 81/81/81 
f 83/83/83 82/82/82 58/58/58 
f 82/82/82 84/84/84 58/58/58 
f 85/85/85 84/84/84 82/82/82 
f 86/86/86 85/85/85 82/82/82 
f 66/66/66 87/87/87 55/55/55 
f 89/89/89 88/88/88 66/66/66 
f 90/90/90 88/88/88 89/89/89 
f 92/92/92 83/83/83 91/91/91 
f 83/83/83 93/93/93 91/91/91 
f 83/83/83 92/92/92 94/94/94 
f 92/92/92 95/95/95 94/94/94 
f 94/94/94 95/95/95 96/96/96 
f 95/95/95 97/97/97 96/96/96 
f 98/98/98 96/96/96 97/97/97 
f 99/99/99 98/98/98 97/97/97 
f 98/98/98 99/99/99 100/100/100 
f 99/99/99 101/101/101 100/100/100 
f 103/103/103 102/102/102 93/93/93 
f 102/102/102 104/104/104 93/93/93 
f 103/103/103 106/106/106 105/105/105 
f 59/59/59 106/106/106 103/103/103 
f 109/109/109 108/108/108 107/107/107 
f 108/108/108 110/110/110 107/107/107 
f 111/111/111 107/107/107 110/110/110 
f 112/112/112 111/111/111 110/110/110 
f 110/110/110 108/108/108 113/113/113 
f 110/110/110 113/113/113 112/112/112 
f 108/108/108 114/114/114 113/113/113 
f 108/108/108 109/109/109 115/115/115 
f 108/108/108 115/115/115 114/114/114 
f 109/109/109 116/116/116 115/115/115 
f 109/109/109 107/107/107 117/117/117 
f 109/109/109 117/117/117 116/116/116 
f 107/107/107 118/118/118 117/117/117 
f 107/107/107 111/111/111 118/118/118 
f 113/113/113 119/119/119 112/112/112 
f 115/115/115 120/120/120 114/114/114 
f 117/117/117 121/121/121 116/116/116 
f 111/111/111 122/122/122 118/118/118 
f 125/125/125 124/124/124 123/123/123 
f 124/124/124 126/126/126 123/123/123 
f 129/129/129 128/128/128 127/127/127 
f 32/32/32 128/128/128 129/129/129 
f 130/130/130 32/32/32 129/129/129 
f 67/67/67 132/132/132 131/131/131 
f 131/131/131 132/132/132 133/133/133 
f 134/134/134 131/131/131 133/133/133 
f 131/131/131 135/135/135 69/69/69 
f 135/135/135 136/136/136 69/69/69 

