# Created by DisUnity v0.3.3
v -0.038652323 -0.1515 -0.18533666
v 0.094436675 -0.1515 0.18533666
v 0.094436675 -0.1515 -0.18533666
v -0.038652323 -0.1515 0.18533666
v -0.038652323 -0.14661942 0.19711943
v 0.094436675 -0.14661942 0.19711943
v 0.094436675 -0.14661942 -0.19711943
v -0.038652323 -0.14661942 -0.19711943
v 0.094436675 -0.13483666 -0.202
v -0.038652323 -0.13483666 -0.202
v 0.094436675 0.13483666 -0.202
v -0.038652323 0.13483666 -0.202
v -0.038652323 0.13483666 -0.202
v 0.094436675 0.14661942 -0.19711943
v -0.038652323 0.14661942 -0.19711943
v 0.106219426 0.13483666 -0.19711943
v 0.103918694 0.14431868 -0.19481869
v 0.106219426 0.14661942 -0.18533666
v 0.094436675 0.1515 -0.18533666
v 0.094436675 0.13483666 -0.202
v 0.106219426 -0.13483666 -0.19711943
v 0.094436675 -0.13483666 -0.202
v 0.094436675 -0.14661942 -0.19711943
v 0.094436675 -0.13483666 -0.202
v 0.103918694 -0.14431868 -0.19481869
v 0.106219426 -0.14661942 -0.18533666
v 0.094436675 -0.1515 -0.18533666
v 0.094436675 -0.13483666 0.202
v -0.038652323 0.13483666 0.202
v 0.094436675 0.13483666 0.202
v -0.038652323 -0.13483666 0.202
v 0.106219426 0.13483666 0.19711943
v 0.106219426 -0.13483666 0.19711943
v -0.038652323 0.14661942 0.19711943
v 0.094436675 0.14661942 0.19711943
v -0.038652323 0.1515 0.18533666
v 0.094436675 0.1515 0.18533666
v -0.038652323 0.1515 -0.18533666
v 0.094436675 0.1515 -0.18533666
v 0.106219426 0.14661942 -0.18533666
v 0.106219426 0.14661942 0.18533666
v -0.038652323 0.14661942 -0.19711943
v 0.094436675 0.14661942 -0.19711943
v 0.094436675 -0.14661942 0.19711943
v -0.038652323 -0.13483666 0.202
v -0.038652323 -0.14661942 0.19711943
v 0.103918694 -0.14431868 0.19481869
v 0.106219426 -0.14661942 0.18533666
v 0.094436675 -0.1515 0.18533666
v -0.111099996 0.13483666 0.18533666
v -0.111099996 -0.13483666 -0.18533666
v -0.111099996 0.13483666 -0.18533666
v -0.111099996 -0.13483666 0.18533666
v -0.106219426 -0.14661942 0.18533666
v -0.106219426 -0.14661942 -0.18533666
v -0.094436675 -0.1515 0.18533666
v -0.094436675 -0.1515 -0.18533666
v -0.106219426 0.13483666 0.19711943
v -0.106219426 -0.13483666 0.19711943
v -0.094436675 0.13483666 0.202
v -0.094436675 -0.13483666 0.202
v -0.106219426 0.14661942 -0.18533666
v -0.106219426 0.14661942 0.18533666
v -0.094436675 0.1515 -0.18533666
v -0.094436675 0.1515 0.18533666
v -0.106219426 -0.13483666 -0.19711943
v -0.106219426 0.13483666 -0.19711943
v -0.094436675 -0.13483666 -0.202
v -0.094436675 0.13483666 -0.202
v -0.103918694 -0.14431868 0.19481869
v -0.094436675 -0.14661942 0.19711943
v -0.103918694 0.14431868 0.19481869
v -0.094436675 0.14661942 -0.19711943
v -0.103918694 0.14431868 -0.19481869
v -0.094436675 -0.14661942 -0.19711943
v -0.038652323 -0.1515 0.18533666
v -0.038652323 -0.14661942 0.19711943
v -0.038652323 -0.1515 -0.18533666
v -0.038652323 -0.14661942 -0.19711943
v -0.038652323 -0.13483666 -0.202
v -0.038652323 0.13483666 -0.202
v -0.094436675 0.14661942 0.19711943
v -0.094436675 0.13483666 0.202
v -0.103918694 0.14431868 0.19481869
v -0.106219426 0.14661942 0.18533666
v -0.094436675 0.1515 0.18533666
v -0.103918694 -0.14431868 -0.19481869
v -0.103918694 -0.14431868 -0.19481869
v -0.094436675 -0.14661942 -0.19711943
v -0.106219426 -0.14661942 -0.18533666
v -0.038652323 -0.13483666 0.202
v -0.038652323 0.13483666 0.202
v -0.094436675 -0.13483666 0.202
v -0.094436675 0.14661942 0.19711943
v -0.038652323 0.14661942 0.19711943
v -0.094436675 0.1515 0.18533666
v -0.038652323 0.1515 0.18533666
v -0.094436675 0.1515 -0.18533666
v -0.038652323 0.1515 -0.18533666
v -0.094436675 0.14661942 -0.19711943
v -0.038652323 0.14661942 -0.19711943
v -0.038652323 -0.14661942 0.19711943
v -0.094436675 -0.14661942 0.19711943
v -0.038652323 -0.13483666 0.202
v -0.106219426 -0.14661942 0.18533666
v -0.103918694 -0.14431868 0.19481869
v 0.111099996 -0.13483666 -0.18533666
v 0.111099996 0.13483666 0.18533666
v 0.111099996 0.13483666 -0.18533666
v 0.111099996 -0.13483666 0.18533666
v 0.106219426 -0.14661942 -0.18533666
v 0.106219426 -0.14661942 0.18533666
v 0.106219426 -0.13483666 0.19711943
v 0.106219426 0.13483666 0.19711943
v 0.106219426 0.14661942 0.18533666
v 0.106219426 0.14661942 -0.18533666
v 0.106219426 0.13483666 -0.19711943
v 0.106219426 -0.13483666 -0.19711943
v 0.103918694 -0.14431868 0.19481869
v 0.103918694 0.14431868 0.19481869
v 0.103918694 0.14431868 -0.19481869
v 0.103918694 -0.14431868 -0.19481869
v 0.106219426 -0.14661942 0.18533666
v 0.094436675 -0.1515 -0.18533666
v 0.094436675 -0.1515 0.18533666
v 0.106219426 -0.14661942 -0.18533666
v 0.106219426 0.14661942 0.18533666
v 0.103918694 0.14431868 0.19481869
v 0.094436675 0.14661942 0.19711943
v 0.094436675 0.13483666 0.202
v -0.094436675 0.14661942 -0.19711943
v -0.103918694 0.14431868 -0.19481869
v -0.106219426 0.14661942 -0.18533666
v -0.094436675 0.1515 -0.18533666
v -0.038652323 0.14661942 -0.19711943
v -0.038652323 0.13483666 -0.202
vn -0.0 -0.98078537 -0.19509019
vn 0.18540692 -0.9650122 0.185407
vn 0.1854069 -0.9650122 -0.1854069
vn -0.0 -0.98078537 0.19509019
vn -0.0 -0.7071069 0.70710665
vn 0.18400095 -0.69503355 0.69503385
vn 0.18400104 -0.6950336 -0.6950338
vn -0.0 -0.7071068 -0.70710665
vn 0.18540743 -0.18540677 -0.96501213
vn -0.0 -0.19509034 -0.98078525
vn 0.18540739 0.18540682 -0.96501213
vn -0.0 0.19509034 -0.98078525
vn -0.0 0.19509034 -0.98078525
vn 0.18400095 0.6950336 -0.6950338
vn -0.0 0.7071069 -0.70710665
vn 0.69503427 0.18400061 -0.69503325
vn 0.5773505 0.5773498 -0.5773505
vn 0.6950341 0.69503325 -0.18400116
vn 0.18540692 0.9650122 -0.185407
vn 0.18540739 0.18540682 -0.96501213
vn 0.69503427 -0.18400052 -0.69503325
vn 0.18540743 -0.18540677 -0.96501213
vn 0.18400104 -0.6950336 -0.6950338
vn 0.18540743 -0.18540677 -0.96501213
vn 0.57735056 -0.5773498 -0.57735044
vn 0.6950341 -0.6950333 -0.18400112
vn 0.1854069 -0.9650122 -0.1854069
vn 0.18540739 -0.18540682 0.96501213
vn -0.0 0.19509034 0.98078525
vn 0.18540743 0.18540677 0.96501213
vn -0.0 -0.19509034 0.98078525
vn 0.69503427 0.18400052 0.69503325
vn 0.69503427 -0.18400061 0.69503325
vn -0.0 0.7071068 0.70710665
vn 0.18400104 0.6950336 0.6950338
vn -0.0 0.98078537 0.19509019
vn 0.1854069 0.9650122 0.1854069
vn -0.0 0.98078537 -0.19509019
vn 0.18540692 0.9650122 -0.185407
vn 0.6950341 0.69503325 -0.18400116
vn 0.6950341 0.6950333 0.18400112
vn -0.0 0.7071069 -0.70710665
vn 0.18400095 0.6950336 -0.6950338
vn 0.18400095 -0.69503355 0.69503385
vn -0.0 -0.19509034 0.98078525
vn -0.0 -0.7071069 0.70710665
vn 0.5773505 -0.5773498 0.5773505
vn 0.6950341 -0.6950333 0.18400118
vn 0.18540692 -0.9650122 0.185407
vn -0.9650123 0.18540639 0.18540676
vn -0.9650123 -0.18540639 -0.18540676
vn -0.9650123 0.18540636 -0.18540677
vn -0.9650123 -0.18540636 0.18540677
vn -0.6950341 -0.6950333 0.18400112
vn -0.6950341 -0.6950333 -0.18400118
vn -0.18540688 -0.9650122 0.18540676
vn -0.18540692 -0.9650122 -0.18540688
vn -0.69503427 0.18400061 0.69503325
vn -0.69503427 -0.18400052 0.69503325
vn -0.18540739 0.18540686 0.96501213
vn -0.18540743 -0.18540682 0.96501213
vn -0.6950341 0.6950333 -0.18400112
vn -0.6950341 0.6950333 0.18400118
vn -0.18540688 0.9650122 -0.18540676
vn -0.18540692 0.9650122 0.18540688
vn -0.69503427 -0.18400061 -0.69503325
vn -0.69503427 0.18400052 -0.69503325
vn -0.18540739 -0.18540686 -0.96501213
vn -0.18540743 0.18540682 -0.96501213
vn -0.57735056 -0.5773498 0.57735044
vn -0.18400106 -0.69503367 0.69503367
vn -0.5773505 0.5773498 0.5773505
vn -0.18400106 0.69503367 -0.69503367
vn -0.5773505 0.5773498 -0.57735044
vn -0.18400098 -0.69503367 -0.69503367
vn -0.0 -0.98078537 0.19509019
vn -0.0 -0.7071069 0.70710665
vn -0.0 -0.98078537 -0.19509019
vn -0.0 -0.7071068 -0.70710665
vn -0.0 -0.19509034 -0.98078525
vn -0.0 0.19509034 -0.98078525
vn -0.18400098 0.69503367 0.69503367
vn -0.18540739 0.18540686 0.96501213
vn -0.5773505 0.5773498 0.5773505
vn -0.6950341 0.6950333 0.18400118
vn -0.18540692 0.9650122 0.18540688
vn -0.5773505 -0.5773498 -0.5773505
vn -0.5773505 -0.5773498 -0.5773505
vn -0.18400098 -0.69503367 -0.69503367
vn -0.6950341 -0.6950333 -0.18400118
vn -0.0 -0.19509034 0.98078525
vn -0.0 0.19509034 0.98078525
vn -0.18540743 -0.18540682 0.96501213
vn -0.18400098 0.69503367 0.69503367
vn -0.0 0.7071068 0.70710665
vn -0.18540692 0.9650122 0.18540688
vn -0.0 0.98078537 0.19509019
vn -0.18540688 0.9650122 -0.18540676
vn -0.0 0.98078537 -0.19509019
vn -0.18400106 0.69503367 -0.69503367
vn -0.0 0.7071069 -0.70710665
vn -0.0 -0.7071069 0.70710665
vn -0.18400106 -0.69503367 0.69503367
vn -0.0 -0.19509034 0.98078525
vn -0.6950341 -0.6950333 0.18400112
vn -0.57735056 -0.5773498 0.57735044
vn 0.9650123 -0.18540636 -0.18540677
vn 0.9650123 0.18540636 0.18540677
vn 0.9650123 0.18540639 -0.18540676
vn 0.9650123 -0.18540639 0.18540676
vn 0.6950341 -0.6950333 -0.18400112
vn 0.6950341 -0.6950333 0.18400118
vn 0.69503427 -0.18400061 0.69503325
vn 0.69503427 0.18400052 0.69503325
vn 0.6950341 0.6950333 0.18400112
vn 0.6950341 0.69503325 -0.18400116
vn 0.69503427 0.18400061 -0.69503325
vn 0.69503427 -0.18400052 -0.69503325
vn 0.5773505 -0.5773498 0.5773505
vn 0.57735056 0.5773498 0.57735044
vn 0.5773505 0.5773498 -0.5773505
vn 0.57735056 -0.5773498 -0.57735044
vn 0.6950341 -0.6950333 0.18400118
vn 0.1854069 -0.9650122 -0.1854069
vn 0.18540692 -0.9650122 0.185407
vn 0.6950341 -0.6950333 -0.18400112
vn 0.6950341 0.6950333 0.18400112
vn 0.57735056 0.5773498 0.57735044
vn 0.18400104 0.6950336 0.6950338
vn 0.18540743 0.18540677 0.96501213
vn -0.18400106 0.69503367 -0.69503367
vn -0.5773505 0.5773498 -0.57735044
vn -0.6950341 0.6950333 -0.18400112
vn -0.18540688 0.9650122 -0.18540676
vn -0.0 0.7071069 -0.70710665
vn -0.0 0.19509034 -0.98078525
vt 0.987477 0.32802534
vt 0.9871972 0.3239559
vt 0.9872485 0.32814634
vt 0.9874258 0.32383478
vt 0.98747885 0.3237015
vt 0.98725027 0.32382262
vt 0.9873048 0.3282795
vt 0.9875334 0.3281585
vt 0.98743755 0.3283347
vt 0.98766613 0.3282137
vt 0.9904606 0.3283347
vt 0.9906891 0.3282137
vt 0.9906891 0.3282137
vt 0.99059194 0.3282795
vt 0.9908206 0.3281585
vt 0.99043965 0.32829022
vt 0.9905496 0.3282621
vt 0.9905701 0.32815695
vt 0.99064505 0.32814634
vt 0.9904606 0.3283347
vt 0.9874167 0.32829022
vt 0.98743755 0.3283347
vt 0.9873048 0.3282795
vt 0.98743755 0.3283347
vt 0.987314 0.3282622
vt 0.98728293 0.32815707
vt 0.9872485 0.32814634
vt 0.9873817 0.32376742
vt 0.9906333 0.3236463
vt 0.9904047 0.32376742
vt 0.9876103 0.32364643
vt 0.9903852 0.32383335
vt 0.98736215 0.32383335
vt 0.99076605 0.32370162
vt 0.99053746 0.32382262
vt 0.9908224 0.32383478
vt 0.9905938 0.32395577
vt 0.99087363 0.32802534
vt 0.99064505 0.32814634
vt 0.9905701 0.32815695
vt 0.99051887 0.3239665
vt 0.9908206 0.3281585
vt 0.99059194 0.3282795
vt 0.98725027 0.32382262
vt 0.9876103 0.32364643
vt 0.98747885 0.3237015
vt 0.9872601 0.3238573
vt 0.9872317 0.3239665
vt 0.9871972 0.3239559
vt 0.99834746 0.3236431
vt 0.99474895 0.32871723
vt 0.99840945 0.32871723
vt 0.99468696 0.32364297
vt 0.9945169 0.32364845
vt 0.9945789 0.3287226
vt 0.99442613 0.32366133
vt 0.9944881 0.3287356
vt 0.9983353 0.32348716
vt 0.99467486 0.32348716
vt 0.99830997 0.3234334
vt 0.9946495 0.32343328
vt 0.99855924 0.3287226
vt 0.99849725 0.32364845
vt 0.99860096 0.3287356
vt 0.998539 0.32366145
vt 0.9947408 0.3288839
vt 0.9984012 0.3288839
vt 0.99471706 0.32896376
vt 0.9983776 0.32896376
vt 0.99454176 0.32352114
vt 0.9944904 0.32350016
vt 0.99845964 0.32352126
vt 0.9985367 0.32889688
vt 0.9985248 0.32885492
vt 0.99455637 0.32889688
vt 0.99431014 0.32372284
vt 0.9943744 0.32356155
vt 0.99437207 0.32879698
vt 0.9944403 0.3289584
vt 0.9946011 0.32902515
vt 0.9982616 0.32902515
vt 0.9984708 0.32350016
vt 0.99830997 0.3234334
vt 0.99845964 0.32352126
vt 0.99849725 0.32364845
vt 0.998539 0.32366145
vt 0.9946069 0.32885492
vt 0.9946069 0.32885492
vt 0.99455637 0.32889688
vt 0.9945789 0.3287226
vt 0.9945335 0.3234948
vt 0.99819404 0.3234948
vt 0.9946495 0.32343328
vt 0.9984708 0.32350016
vt 0.9983548 0.32356167
vt 0.998539 0.32366145
vt 0.998423 0.32372284
vt 0.99860096 0.3287356
vt 0.99848497 0.32879698
vt 0.9985367 0.32889688
vt 0.99842066 0.3289584
vt 0.9943744 0.32356155
vt 0.9944904 0.32350016
vt 0.9945335 0.3234948
vt 0.9945169 0.32364845
vt 0.99454176 0.32352114
vt 0.901659 0.31255805
vt 0.9737035 0.18508434
vt 0.97328913 0.3129468
vt 0.90207493 0.18468952
vt 0.89826375 0.31255805
vt 0.8986878 0.18465197
vt 0.90206987 0.18029094
vt 0.97373736 0.18068624
vt 0.9770906 0.18508422
vt 0.97667605 0.31298387
vt 0.9732944 0.31734538
vt 0.9016252 0.31695688
vt 0.8992352 0.18097508
vt 0.9765674 0.18140173
vt 0.97612935 0.31666076
vt 0.8987911 0.31624484
vt 0.9872317 0.3239665
vt 0.9872485 0.32814634
vt 0.9871972 0.3239559
vt 0.98728293 0.32815707
vt 0.99051887 0.3239665
vt 0.99049574 0.3238572
vt 0.99053746 0.32382262
vt 0.9904047 0.32376742
vt 0.9985367 0.32889688
vt 0.9985248 0.32885492
vt 0.99855924 0.3287226
vt 0.99860096 0.3287356
vt 0.99842066 0.3289584
vt 0.9982616 0.32902515

g mj39
s 1
usemtl mj39
f 3/3/3 2/2/2 1/1/1 
f 2/2/2 4/4/4 1/1/1 
f 4/4/4 2/2/2 5/5/5 
f 2/2/2 6/6/6 5/5/5 
f 7/7/7 3/3/3 1/1/1 
f 8/8/8 7/7/7 1/1/1 
f 9/9/9 7/7/7 8/8/8 
f 10/10/10 9/9/9 8/8/8 
f 9/9/9 10/10/10 11/11/11 
f 10/10/10 12/12/12 11/11/11 
f 14/14/14 11/11/11 13/13/13 
f 15/15/15 14/14/14 13/13/13 
f 11/11/11 14/14/14 16/16/16 
f 14/14/14 17/17/17 16/16/16 
f 18/18/18 17/17/17 14/14/14 
f 19/19/19 18/18/18 14/14/14 
f 16/16/16 21/21/21 20/20/20 
f 21/21/21 22/22/22 20/20/20 
f 24/24/24 21/21/21 23/23/23 
f 21/21/21 25/25/25 23/23/23 
f 23/23/23 25/25/25 26/26/26 
f 27/27/27 23/23/23 26/26/26 
f 30/30/30 29/29/29 28/28/28 
f 29/29/29 31/31/31 28/28/28 
f 32/32/32 30/30/30 28/28/28 
f 33/33/33 32/32/32 28/28/28 
f 29/29/29 30/30/30 34/34/34 
f 30/30/30 35/35/35 34/34/34 
f 34/34/34 35/35/35 36/36/36 
f 35/35/35 37/37/37 36/36/36 
f 38/38/38 36/36/36 37/37/37 
f 39/39/39 38/38/38 37/37/37 
f 40/40/40 39/39/39 37/37/37 
f 41/41/41 40/40/40 37/37/37 
f 37/37/37 35/35/35 41/41/41 
f 38/38/38 39/39/39 42/42/42 
f 39/39/39 43/43/43 42/42/42 
f 28/28/28 44/44/44 33/33/33 
f 44/44/44 28/28/28 45/45/45 
f 46/46/46 44/44/44 45/45/45 
f 44/44/44 47/47/47 33/33/33 
f 48/48/48 47/47/47 44/44/44 
f 49/49/49 48/48/48 44/44/44 
f 52/52/52 51/51/51 50/50/50 
f 51/51/51 53/53/53 50/50/50 
f 53/53/53 51/51/51 54/54/54 
f 51/51/51 55/55/55 54/54/54 
f 54/54/54 55/55/55 56/56/56 
f 55/55/55 57/57/57 56/56/56 
f 58/58/58 50/50/50 53/53/53 
f 59/59/59 58/58/58 53/53/53 
f 53/53/53 54/54/54 59/59/59 
f 60/60/60 58/58/58 59/59/59 
f 61/61/61 60/60/60 59/59/59 
f 62/62/62 52/52/52 50/50/50 
f 63/63/63 62/62/62 50/50/50 
f 50/50/50 58/58/58 63/63/63 
f 64/64/64 62/62/62 63/63/63 
f 65/65/65 64/64/64 63/63/63 
f 66/66/66 51/51/51 52/52/52 
f 51/51/51 66/66/66 55/55/55 
f 67/67/67 66/66/66 52/52/52 
f 52/52/52 62/62/62 67/67/67 
f 68/68/68 66/66/66 67/67/67 
f 69/69/69 68/68/68 67/67/67 
f 54/54/54 70/70/70 59/59/59 
f 56/56/56 71/71/71 54/54/54 
f 61/61/61 59/59/59 71/71/71 
f 58/58/58 72/72/72 63/63/63 
f 69/69/69 67/67/67 73/73/73 
f 62/62/62 74/74/74 67/67/67 
f 68/68/68 75/75/75 66/66/66 
f 56/56/56 76/76/76 71/71/71 
f 76/76/76 77/77/77 71/71/71 
f 76/76/76 56/56/56 57/57/57 
f 57/57/57 55/55/55 75/75/75 
f 78/78/78 76/76/76 57/57/57 
f 75/75/75 79/79/79 57/57/57 
f 79/79/79 78/78/78 57/57/57 
f 80/80/80 79/79/79 75/75/75 
f 68/68/68 80/80/80 75/75/75 
f 80/80/80 68/68/68 81/81/81 
f 68/68/68 69/69/69 81/81/81 
f 83/83/83 82/82/82 58/58/58 
f 82/82/82 84/84/84 58/58/58 
f 85/85/85 84/84/84 82/82/82 
f 86/86/86 85/85/85 82/82/82 
f 66/66/66 87/87/87 55/55/55 
f 89/89/89 88/88/88 66/66/66 
f 90/90/90 88/88/88 89/89/89 
f 92/92/92 83/83/83 91/91/91 
f 83/83/83 93/93/93 91/91/91 
f 83/83/83 92/92/92 94/94/94 
f 92/92/92 95/95/95 94/94/94 
f 94/94/94 95/95/95 96/96/96 
f 95/95/95 97/97/97 96/96/96 
f 98/98/98 96/96/96 97/97/97 
f 99/99/99 98/98/98 97/97/97 
f 98/98/98 99/99/99 100/100/100 
f 99/99/99 101/101/101 100/100/100 
f 103/103/103 102/102/102 93/93/93 
f 102/102/102 104/104/104 93/93/93 
f 103/103/103 106/106/106 105/105/105 
f 59/59/59 106/106/106 103/103/103 
f 109/109/109 108/108/108 107/107/107 
f 108/108/108 110/110/110 107/107/107 
f 111/111/111 107/107/107 110/110/110 
f 112/112/112 111/111/111 110/110/110 
f 110/110/110 108/108/108 113/113/113 
f 110/110/110 113/113/113 112/112/112 
f 108/108/108 114/114/114 113/113/113 
f 108/108/108 109/109/109 115/115/115 
f 108/108/108 115/115/115 114/114/114 
f 109/109/109 116/116/116 115/115/115 
f 109/109/109 107/107/107 117/117/117 
f 109/109/109 117/117/117 116/116/116 
f 107/107/107 118/118/118 117/117/117 
f 107/107/107 111/111/111 118/118/118 
f 113/113/113 119/119/119 112/112/112 
f 115/115/115 120/120/120 114/114/114 
f 117/117/117 121/121/121 116/116/116 
f 111/111/111 122/122/122 118/118/118 
f 125/125/125 124/124/124 123/123/123 
f 124/124/124 126/126/126 123/123/123 
f 129/129/129 128/128/128 127/127/127 
f 32/32/32 128/128/128 129/129/129 
f 130/130/130 32/32/32 129/129/129 
f 67/67/67 132/132/132 131/131/131 
f 131/131/131 132/132/132 133/133/133 
f 134/134/134 131/131/131 133/133/133 
f 131/131/131 135/135/135 69/69/69 
f 135/135/135 136/136/136 69/69/69 

