# Created by DisUnity v0.3.3
v -0.038652323 -0.1515 -0.18533666
v 0.094436675 -0.1515 0.18533666
v 0.094436675 -0.1515 -0.18533666
v -0.038652323 -0.1515 0.18533666
v -0.038652323 -0.14661942 0.19711943
v 0.094436675 -0.14661942 0.19711943
v 0.094436675 -0.14661942 -0.19711943
v -0.038652323 -0.14661942 -0.19711943
v 0.094436675 -0.13483666 -0.202
v -0.038652323 -0.13483666 -0.202
v 0.094436675 0.13483666 -0.202
v -0.038652323 0.13483666 -0.202
v -0.038652323 0.13483666 -0.202
v 0.094436675 0.14661942 -0.19711943
v -0.038652323 0.14661942 -0.19711943
v 0.106219426 0.13483666 -0.19711943
v 0.103918694 0.14431868 -0.19481869
v 0.106219426 0.14661942 -0.18533666
v 0.094436675 0.1515 -0.18533666
v 0.094436675 0.13483666 -0.202
v 0.106219426 -0.13483666 -0.19711943
v 0.094436675 -0.13483666 -0.202
v 0.094436675 -0.14661942 -0.19711943
v 0.094436675 -0.13483666 -0.202
v 0.103918694 -0.14431868 -0.19481869
v 0.106219426 -0.14661942 -0.18533666
v 0.094436675 -0.1515 -0.18533666
v 0.094436675 -0.13483666 0.202
v -0.038652323 0.13483666 0.202
v 0.094436675 0.13483666 0.202
v -0.038652323 -0.13483666 0.202
v 0.106219426 0.13483666 0.19711943
v 0.106219426 -0.13483666 0.19711943
v -0.038652323 0.14661942 0.19711943
v 0.094436675 0.14661942 0.19711943
v -0.038652323 0.1515 0.18533666
v 0.094436675 0.1515 0.18533666
v -0.038652323 0.1515 -0.18533666
v 0.094436675 0.1515 -0.18533666
v 0.106219426 0.14661942 -0.18533666
v 0.106219426 0.14661942 0.18533666
v -0.038652323 0.14661942 -0.19711943
v 0.094436675 0.14661942 -0.19711943
v 0.094436675 -0.14661942 0.19711943
v -0.038652323 -0.13483666 0.202
v -0.038652323 -0.14661942 0.19711943
v 0.103918694 -0.14431868 0.19481869
v 0.106219426 -0.14661942 0.18533666
v 0.094436675 -0.1515 0.18533666
v -0.111099996 0.13483666 0.18533666
v -0.111099996 -0.13483666 -0.18533666
v -0.111099996 0.13483666 -0.18533666
v -0.111099996 -0.13483666 0.18533666
v -0.106219426 -0.14661942 0.18533666
v -0.106219426 -0.14661942 -0.18533666
v -0.094436675 -0.1515 0.18533666
v -0.094436675 -0.1515 -0.18533666
v -0.106219426 0.13483666 0.19711943
v -0.106219426 -0.13483666 0.19711943
v -0.094436675 0.13483666 0.202
v -0.094436675 -0.13483666 0.202
v -0.106219426 0.14661942 -0.18533666
v -0.106219426 0.14661942 0.18533666
v -0.094436675 0.1515 -0.18533666
v -0.094436675 0.1515 0.18533666
v -0.106219426 -0.13483666 -0.19711943
v -0.106219426 0.13483666 -0.19711943
v -0.094436675 -0.13483666 -0.202
v -0.094436675 0.13483666 -0.202
v -0.103918694 -0.14431868 0.19481869
v -0.094436675 -0.14661942 0.19711943
v -0.103918694 0.14431868 0.19481869
v -0.094436675 0.14661942 -0.19711943
v -0.103918694 0.14431868 -0.19481869
v -0.094436675 -0.14661942 -0.19711943
v -0.038652323 -0.1515 0.18533666
v -0.038652323 -0.14661942 0.19711943
v -0.038652323 -0.1515 -0.18533666
v -0.038652323 -0.14661942 -0.19711943
v -0.038652323 -0.13483666 -0.202
v -0.038652323 0.13483666 -0.202
v -0.094436675 0.14661942 0.19711943
v -0.094436675 0.13483666 0.202
v -0.103918694 0.14431868 0.19481869
v -0.106219426 0.14661942 0.18533666
v -0.094436675 0.1515 0.18533666
v -0.103918694 -0.14431868 -0.19481869
v -0.103918694 -0.14431868 -0.19481869
v -0.094436675 -0.14661942 -0.19711943
v -0.106219426 -0.14661942 -0.18533666
v -0.038652323 -0.13483666 0.202
v -0.038652323 0.13483666 0.202
v -0.094436675 -0.13483666 0.202
v -0.094436675 0.14661942 0.19711943
v -0.038652323 0.14661942 0.19711943
v -0.094436675 0.1515 0.18533666
v -0.038652323 0.1515 0.18533666
v -0.094436675 0.1515 -0.18533666
v -0.038652323 0.1515 -0.18533666
v -0.094436675 0.14661942 -0.19711943
v -0.038652323 0.14661942 -0.19711943
v -0.038652323 -0.14661942 0.19711943
v -0.094436675 -0.14661942 0.19711943
v -0.038652323 -0.13483666 0.202
v -0.106219426 -0.14661942 0.18533666
v -0.103918694 -0.14431868 0.19481869
v 0.111099996 -0.13483666 -0.18533666
v 0.111099996 0.13483666 0.18533666
v 0.111099996 0.13483666 -0.18533666
v 0.111099996 -0.13483666 0.18533666
v 0.106219426 -0.14661942 -0.18533666
v 0.106219426 -0.14661942 0.18533666
v 0.106219426 -0.13483666 0.19711943
v 0.106219426 0.13483666 0.19711943
v 0.106219426 0.14661942 0.18533666
v 0.106219426 0.14661942 -0.18533666
v 0.106219426 0.13483666 -0.19711943
v 0.106219426 -0.13483666 -0.19711943
v 0.103918694 -0.14431868 0.19481869
v 0.103918694 0.14431868 0.19481869
v 0.103918694 0.14431868 -0.19481869
v 0.103918694 -0.14431868 -0.19481869
v 0.106219426 -0.14661942 0.18533666
v 0.094436675 -0.1515 -0.18533666
v 0.094436675 -0.1515 0.18533666
v 0.106219426 -0.14661942 -0.18533666
v 0.106219426 0.14661942 0.18533666
v 0.103918694 0.14431868 0.19481869
v 0.094436675 0.14661942 0.19711943
v 0.094436675 0.13483666 0.202
v -0.094436675 0.14661942 -0.19711943
v -0.103918694 0.14431868 -0.19481869
v -0.106219426 0.14661942 -0.18533666
v -0.094436675 0.1515 -0.18533666
v -0.038652323 0.14661942 -0.19711943
v -0.038652323 0.13483666 -0.202
vn -0.0 -0.98078537 -0.19509019
vn 0.18540692 -0.9650122 0.185407
vn 0.1854069 -0.9650122 -0.1854069
vn -0.0 -0.98078537 0.19509019
vn -0.0 -0.7071069 0.70710665
vn 0.18400095 -0.69503355 0.69503385
vn 0.18400104 -0.6950336 -0.6950338
vn -0.0 -0.7071068 -0.70710665
vn 0.18540743 -0.18540677 -0.96501213
vn -0.0 -0.19509034 -0.98078525
vn 0.18540739 0.18540682 -0.96501213
vn -0.0 0.19509034 -0.98078525
vn -0.0 0.19509034 -0.98078525
vn 0.18400095 0.6950336 -0.6950338
vn -0.0 0.7071069 -0.70710665
vn 0.69503427 0.18400061 -0.69503325
vn 0.5773505 0.5773498 -0.5773505
vn 0.6950341 0.69503325 -0.18400116
vn 0.18540692 0.9650122 -0.185407
vn 0.18540739 0.18540682 -0.96501213
vn 0.69503427 -0.18400052 -0.69503325
vn 0.18540743 -0.18540677 -0.96501213
vn 0.18400104 -0.6950336 -0.6950338
vn 0.18540743 -0.18540677 -0.96501213
vn 0.57735056 -0.5773498 -0.57735044
vn 0.6950341 -0.6950333 -0.18400112
vn 0.1854069 -0.9650122 -0.1854069
vn 0.18540739 -0.18540682 0.96501213
vn -0.0 0.19509034 0.98078525
vn 0.18540743 0.18540677 0.96501213
vn -0.0 -0.19509034 0.98078525
vn 0.69503427 0.18400052 0.69503325
vn 0.69503427 -0.18400061 0.69503325
vn -0.0 0.7071068 0.70710665
vn 0.18400104 0.6950336 0.6950338
vn -0.0 0.98078537 0.19509019
vn 0.1854069 0.9650122 0.1854069
vn -0.0 0.98078537 -0.19509019
vn 0.18540692 0.9650122 -0.185407
vn 0.6950341 0.69503325 -0.18400116
vn 0.6950341 0.6950333 0.18400112
vn -0.0 0.7071069 -0.70710665
vn 0.18400095 0.6950336 -0.6950338
vn 0.18400095 -0.69503355 0.69503385
vn -0.0 -0.19509034 0.98078525
vn -0.0 -0.7071069 0.70710665
vn 0.5773505 -0.5773498 0.5773505
vn 0.6950341 -0.6950333 0.18400118
vn 0.18540692 -0.9650122 0.185407
vn -0.9650123 0.18540639 0.18540676
vn -0.9650123 -0.18540639 -0.18540676
vn -0.9650123 0.18540636 -0.18540677
vn -0.9650123 -0.18540636 0.18540677
vn -0.6950341 -0.6950333 0.18400112
vn -0.6950341 -0.6950333 -0.18400118
vn -0.18540688 -0.9650122 0.18540676
vn -0.18540692 -0.9650122 -0.18540688
vn -0.69503427 0.18400061 0.69503325
vn -0.69503427 -0.18400052 0.69503325
vn -0.18540739 0.18540686 0.96501213
vn -0.18540743 -0.18540682 0.96501213
vn -0.6950341 0.6950333 -0.18400112
vn -0.6950341 0.6950333 0.18400118
vn -0.18540688 0.9650122 -0.18540676
vn -0.18540692 0.9650122 0.18540688
vn -0.69503427 -0.18400061 -0.69503325
vn -0.69503427 0.18400052 -0.69503325
vn -0.18540739 -0.18540686 -0.96501213
vn -0.18540743 0.18540682 -0.96501213
vn -0.57735056 -0.5773498 0.57735044
vn -0.18400106 -0.69503367 0.69503367
vn -0.5773505 0.5773498 0.5773505
vn -0.18400106 0.69503367 -0.69503367
vn -0.5773505 0.5773498 -0.57735044
vn -0.18400098 -0.69503367 -0.69503367
vn -0.0 -0.98078537 0.19509019
vn -0.0 -0.7071069 0.70710665
vn -0.0 -0.98078537 -0.19509019
vn -0.0 -0.7071068 -0.70710665
vn -0.0 -0.19509034 -0.98078525
vn -0.0 0.19509034 -0.98078525
vn -0.18400098 0.69503367 0.69503367
vn -0.18540739 0.18540686 0.96501213
vn -0.5773505 0.5773498 0.5773505
vn -0.6950341 0.6950333 0.18400118
vn -0.18540692 0.9650122 0.18540688
vn -0.5773505 -0.5773498 -0.5773505
vn -0.5773505 -0.5773498 -0.5773505
vn -0.18400098 -0.69503367 -0.69503367
vn -0.6950341 -0.6950333 -0.18400118
vn -0.0 -0.19509034 0.98078525
vn -0.0 0.19509034 0.98078525
vn -0.18540743 -0.18540682 0.96501213
vn -0.18400098 0.69503367 0.69503367
vn -0.0 0.7071068 0.70710665
vn -0.18540692 0.9650122 0.18540688
vn -0.0 0.98078537 0.19509019
vn -0.18540688 0.9650122 -0.18540676
vn -0.0 0.98078537 -0.19509019
vn -0.18400106 0.69503367 -0.69503367
vn -0.0 0.7071069 -0.70710665
vn -0.0 -0.7071069 0.70710665
vn -0.18400106 -0.69503367 0.69503367
vn -0.0 -0.19509034 0.98078525
vn -0.6950341 -0.6950333 0.18400112
vn -0.57735056 -0.5773498 0.57735044
vn 0.9650123 -0.18540636 -0.18540677
vn 0.9650123 0.18540636 0.18540677
vn 0.9650123 0.18540639 -0.18540676
vn 0.9650123 -0.18540639 0.18540676
vn 0.6950341 -0.6950333 -0.18400112
vn 0.6950341 -0.6950333 0.18400118
vn 0.69503427 -0.18400061 0.69503325
vn 0.69503427 0.18400052 0.69503325
vn 0.6950341 0.6950333 0.18400112
vn 0.6950341 0.69503325 -0.18400116
vn 0.69503427 0.18400061 -0.69503325
vn 0.69503427 -0.18400052 -0.69503325
vn 0.5773505 -0.5773498 0.5773505
vn 0.57735056 0.5773498 0.57735044
vn 0.5773505 0.5773498 -0.5773505
vn 0.57735056 -0.5773498 -0.57735044
vn 0.6950341 -0.6950333 0.18400118
vn 0.1854069 -0.9650122 -0.1854069
vn 0.18540692 -0.9650122 0.185407
vn 0.6950341 -0.6950333 -0.18400112
vn 0.6950341 0.6950333 0.18400112
vn 0.57735056 0.5773498 0.57735044
vn 0.18400104 0.6950336 0.6950338
vn 0.18540743 0.18540677 0.96501213
vn -0.18400106 0.69503367 -0.69503367
vn -0.5773505 0.5773498 -0.57735044
vn -0.6950341 0.6950333 -0.18400112
vn -0.18540688 0.9650122 -0.18540676
vn -0.0 0.7071069 -0.70710665
vn -0.0 0.19509034 -0.98078525
vt 0.612332 0.49477196
vt 0.61205214 0.4907025
vt 0.6121034 0.49489295
vt 0.6122807 0.4905814
vt 0.6123338 0.49044812
vt 0.6121052 0.4905693
vt 0.6121597 0.49502617
vt 0.6123883 0.4949051
vt 0.6122925 0.49508137
vt 0.61252105 0.4949603
vt 0.6153155 0.49508137
vt 0.6155441 0.4949603
vt 0.6155441 0.4949603
vt 0.6154469 0.4950261
vt 0.6156755 0.4949051
vt 0.6152946 0.49503684
vt 0.61540455 0.49500877
vt 0.61542505 0.49490362
vt 0.6155 0.49489295
vt 0.6153155 0.49508137
vt 0.6122716 0.4950369
vt 0.6122925 0.49508137
vt 0.6121597 0.49502617
vt 0.6122925 0.49508137
vt 0.6121689 0.49500883
vt 0.61213785 0.49490368
vt 0.6121034 0.49489295
vt 0.6122366 0.49051404
vt 0.61548823 0.49039298
vt 0.61525965 0.49051404
vt 0.6124652 0.49039304
vt 0.6152401 0.49057996
vt 0.61221707 0.49057996
vt 0.615621 0.49044824
vt 0.6153924 0.4905693
vt 0.6156773 0.49058145
vt 0.6154487 0.49070245
vt 0.6157286 0.49477196
vt 0.6155 0.49489295
vt 0.61542505 0.49490362
vt 0.6153738 0.49071318
vt 0.6156755 0.4949051
vt 0.6154469 0.4950261
vt 0.6121052 0.4905693
vt 0.6124652 0.49039304
vt 0.6123338 0.49044812
vt 0.612115 0.49060392
vt 0.6120866 0.49071318
vt 0.61205214 0.4907025
vt 0.6232024 0.4903897
vt 0.6196039 0.4954639
vt 0.6232644 0.49546385
vt 0.6195419 0.4903896
vt 0.61937183 0.49039507
vt 0.6194338 0.49546927
vt 0.61928105 0.49040794
vt 0.61934304 0.49548227
vt 0.6231902 0.49023378
vt 0.6195298 0.49023378
vt 0.6231649 0.49018002
vt 0.61950445 0.4901799
vt 0.62341416 0.4954692
vt 0.62335217 0.49039507
vt 0.6234559 0.4954822
vt 0.6233939 0.49040806
vt 0.6195957 0.49563056
vt 0.6232562 0.4956305
vt 0.61957204 0.49571037
vt 0.62323254 0.49571037
vt 0.6193967 0.49026775
vt 0.6193453 0.49024677
vt 0.62331456 0.49026787
vt 0.6233916 0.4956435
vt 0.6233797 0.49560153
vt 0.6194113 0.49564356
vt 0.61916506 0.49046946
vt 0.6192293 0.49030817
vt 0.61922705 0.49554366
vt 0.61929524 0.495705
vt 0.619456 0.49577183
vt 0.6231165 0.49577177
vt 0.6233257 0.49024677
vt 0.6231649 0.49018002
vt 0.62331456 0.49026787
vt 0.62335217 0.49039507
vt 0.6233939 0.49040806
vt 0.61946183 0.4956016
vt 0.61946183 0.4956016
vt 0.6194113 0.49564356
vt 0.6194338 0.49546927
vt 0.6193884 0.49024147
vt 0.62304896 0.4902414
vt 0.61950445 0.4901799
vt 0.6233257 0.49024677
vt 0.6232097 0.49030828
vt 0.6233939 0.49040806
vt 0.6232779 0.49046946
vt 0.6234559 0.4954822
vt 0.6233399 0.4955436
vt 0.6233916 0.4956435
vt 0.62327564 0.495705
vt 0.6192293 0.49030817
vt 0.6193453 0.49024677
vt 0.6193884 0.49024147
vt 0.61937183 0.49039507
vt 0.6193967 0.49026775
vt 0.52651393 0.47930467
vt 0.5985585 0.35183102
vt 0.59814405 0.4796934
vt 0.52692986 0.35143614
vt 0.5231187 0.47930467
vt 0.52354276 0.3513986
vt 0.52692485 0.34703755
vt 0.59859234 0.34743285
vt 0.6019455 0.35183084
vt 0.60153097 0.4797305
vt 0.5981493 0.484092
vt 0.52648014 0.4837035
vt 0.5240901 0.3477217
vt 0.60142237 0.34814835
vt 0.6009843 0.48340738
vt 0.523646 0.48299146
vt 0.6120866 0.49071318
vt 0.6121034 0.49489295
vt 0.61205214 0.4907025
vt 0.61213785 0.49490368
vt 0.6153738 0.49071318
vt 0.61535066 0.49060386
vt 0.6153924 0.4905693
vt 0.61525965 0.49051404
vt 0.6233916 0.4956435
vt 0.6233797 0.49560153
vt 0.62341416 0.4954692
vt 0.6234559 0.4954822
vt 0.62327564 0.495705
vt 0.6231165 0.49577177

g mj13
s 1
usemtl mj13
f 3/3/3 2/2/2 1/1/1 
f 2/2/2 4/4/4 1/1/1 
f 4/4/4 2/2/2 5/5/5 
f 2/2/2 6/6/6 5/5/5 
f 7/7/7 3/3/3 1/1/1 
f 8/8/8 7/7/7 1/1/1 
f 9/9/9 7/7/7 8/8/8 
f 10/10/10 9/9/9 8/8/8 
f 9/9/9 10/10/10 11/11/11 
f 10/10/10 12/12/12 11/11/11 
f 14/14/14 11/11/11 13/13/13 
f 15/15/15 14/14/14 13/13/13 
f 11/11/11 14/14/14 16/16/16 
f 14/14/14 17/17/17 16/16/16 
f 18/18/18 17/17/17 14/14/14 
f 19/19/19 18/18/18 14/14/14 
f 16/16/16 21/21/21 20/20/20 
f 21/21/21 22/22/22 20/20/20 
f 24/24/24 21/21/21 23/23/23 
f 21/21/21 25/25/25 23/23/23 
f 23/23/23 25/25/25 26/26/26 
f 27/27/27 23/23/23 26/26/26 
f 30/30/30 29/29/29 28/28/28 
f 29/29/29 31/31/31 28/28/28 
f 32/32/32 30/30/30 28/28/28 
f 33/33/33 32/32/32 28/28/28 
f 29/29/29 30/30/30 34/34/34 
f 30/30/30 35/35/35 34/34/34 
f 34/34/34 35/35/35 36/36/36 
f 35/35/35 37/37/37 36/36/36 
f 38/38/38 36/36/36 37/37/37 
f 39/39/39 38/38/38 37/37/37 
f 40/40/40 39/39/39 37/37/37 
f 41/41/41 40/40/40 37/37/37 
f 37/37/37 35/35/35 41/41/41 
f 38/38/38 39/39/39 42/42/42 
f 39/39/39 43/43/43 42/42/42 
f 28/28/28 44/44/44 33/33/33 
f 44/44/44 28/28/28 45/45/45 
f 46/46/46 44/44/44 45/45/45 
f 44/44/44 47/47/47 33/33/33 
f 48/48/48 47/47/47 44/44/44 
f 49/49/49 48/48/48 44/44/44 
f 52/52/52 51/51/51 50/50/50 
f 51/51/51 53/53/53 50/50/50 
f 53/53/53 51/51/51 54/54/54 
f 51/51/51 55/55/55 54/54/54 
f 54/54/54 55/55/55 56/56/56 
f 55/55/55 57/57/57 56/56/56 
f 58/58/58 50/50/50 53/53/53 
f 59/59/59 58/58/58 53/53/53 
f 53/53/53 54/54/54 59/59/59 
f 60/60/60 58/58/58 59/59/59 
f 61/61/61 60/60/60 59/59/59 
f 62/62/62 52/52/52 50/50/50 
f 63/63/63 62/62/62 50/50/50 
f 50/50/50 58/58/58 63/63/63 
f 64/64/64 62/62/62 63/63/63 
f 65/65/65 64/64/64 63/63/63 
f 66/66/66 51/51/51 52/52/52 
f 51/51/51 66/66/66 55/55/55 
f 67/67/67 66/66/66 52/52/52 
f 52/52/52 62/62/62 67/67/67 
f 68/68/68 66/66/66 67/67/67 
f 69/69/69 68/68/68 67/67/67 
f 54/54/54 70/70/70 59/59/59 
f 56/56/56 71/71/71 54/54/54 
f 61/61/61 59/59/59 71/71/71 
f 58/58/58 72/72/72 63/63/63 
f 69/69/69 67/67/67 73/73/73 
f 62/62/62 74/74/74 67/67/67 
f 68/68/68 75/75/75 66/66/66 
f 56/56/56 76/76/76 71/71/71 
f 76/76/76 77/77/77 71/71/71 
f 76/76/76 56/56/56 57/57/57 
f 57/57/57 55/55/55 75/75/75 
f 78/78/78 76/76/76 57/57/57 
f 75/75/75 79/79/79 57/57/57 
f 79/79/79 78/78/78 57/57/57 
f 80/80/80 79/79/79 75/75/75 
f 68/68/68 80/80/80 75/75/75 
f 80/80/80 68/68/68 81/81/81 
f 68/68/68 69/69/69 81/81/81 
f 83/83/83 82/82/82 58/58/58 
f 82/82/82 84/84/84 58/58/58 
f 85/85/85 84/84/84 82/82/82 
f 86/86/86 85/85/85 82/82/82 
f 66/66/66 87/87/87 55/55/55 
f 89/89/89 88/88/88 66/66/66 
f 90/90/90 88/88/88 89/89/89 
f 92/92/92 83/83/83 91/91/91 
f 83/83/83 93/93/93 91/91/91 
f 83/83/83 92/92/92 94/94/94 
f 92/92/92 95/95/95 94/94/94 
f 94/94/94 95/95/95 96/96/96 
f 95/95/95 97/97/97 96/96/96 
f 98/98/98 96/96/96 97/97/97 
f 99/99/99 98/98/98 97/97/97 
f 98/98/98 99/99/99 100/100/100 
f 99/99/99 101/101/101 100/100/100 
f 103/103/103 102/102/102 93/93/93 
f 102/102/102 104/104/104 93/93/93 
f 103/103/103 106/106/106 105/105/105 
f 59/59/59 106/106/106 103/103/103 
f 109/109/109 108/108/108 107/107/107 
f 108/108/108 110/110/110 107/107/107 
f 111/111/111 107/107/107 110/110/110 
f 112/112/112 111/111/111 110/110/110 
f 110/110/110 108/108/108 113/113/113 
f 110/110/110 113/113/113 112/112/112 
f 108/108/108 114/114/114 113/113/113 
f 108/108/108 109/109/109 115/115/115 
f 108/108/108 115/115/115 114/114/114 
f 109/109/109 116/116/116 115/115/115 
f 109/109/109 107/107/107 117/117/117 
f 109/109/109 117/117/117 116/116/116 
f 107/107/107 118/118/118 117/117/117 
f 107/107/107 111/111/111 118/118/118 
f 113/113/113 119/119/119 112/112/112 
f 115/115/115 120/120/120 114/114/114 
f 117/117/117 121/121/121 116/116/116 
f 111/111/111 122/122/122 118/118/118 
f 125/125/125 124/124/124 123/123/123 
f 124/124/124 126/126/126 123/123/123 
f 129/129/129 128/128/128 127/127/127 
f 32/32/32 128/128/128 129/129/129 
f 130/130/130 32/32/32 129/129/129 
f 67/67/67 132/132/132 131/131/131 
f 131/131/131 132/132/132 133/133/133 
f 134/134/134 131/131/131 133/133/133 
f 131/131/131 135/135/135 69/69/69 
f 135/135/135 136/136/136 69/69/69 

